<svg width="16" height="16" viewBox="0 0 16 16" fill="none" xmlns="http://www.w3.org/2000/svg">
  <path d="M7.33333 10.5455C7.70152 10.5455 8 10.8711 8 11.2727C8 11.6744 7.70152 12 7.33333 12H4.66667C4.29848 12 4 11.6744 4 11.2727C4 10.8711 4.29848 10.5455 4.66667 10.5455H7.33333ZM9.73333 7.27273C10.1015 7.27273 10.4 7.59834 10.4 8C10.4 8.40166 10.1015 8.72727 9.73333 8.72727H4.66667C4.29848 8.72727 4 8.40166 4 8C4 7.59834 4.29848 7.27273 4.66667 7.27273H9.73333ZM11.3333 4C11.7015 4 12 4.32561 12 4.72727C12 5.12893 11.7015 5.45455 11.3333 5.45455H4.66667C4.29848 5.45455 4 5.12893 4 4.72727C4 4.32561 4.29848 4 4.66667 4H11.3333Z" fill="#7C7C7C"/>
</svg>
