<svg width="32" height="32" viewBox="0 0 32 32" fill="none" xmlns="http://www.w3.org/2000/svg">
<path d="M18.668 19.8679V27.4716C18.6693 28.5026 20.7579 29.3388 23.3359 29.3388C25.9139 29.3388 28.0025 28.5026 28.0039 27.4716V19.8679" stroke="#06AD5D" stroke-width="1.5" stroke-linecap="round" stroke-linejoin="round"/>
<path d="M18.668 23.6698C18.668 24.7007 20.7579 25.537 23.3359 25.537C25.9139 25.537 28.0039 24.7007 28.0039 23.6698" stroke="#06AD5D" stroke-width="1.5" stroke-linecap="round" stroke-linejoin="round"/>
<path d="M7.99609 14.6661H9.32998" stroke="#06AD5D" stroke-width="1.5" stroke-linecap="round" stroke-linejoin="round"/>
<path d="M13.332 14.6661H14.6659" stroke="#06AD5D" stroke-width="1.5" stroke-linecap="round" stroke-linejoin="round"/>
<path d="M7.99609 18.6677H9.32998" stroke="#06AD5D" stroke-width="1.5" stroke-linecap="round" stroke-linejoin="round"/>
<path d="M13.332 18.6677H14.6659" stroke="#06AD5D" stroke-width="1.5" stroke-linecap="round" stroke-linejoin="round"/>
<path d="M7.99609 14.6661H9.32998" stroke="#06AD5D" stroke-width="1.5" stroke-linecap="round" stroke-linejoin="round"/>
<path d="M13.332 14.6661H14.6659" stroke="#06AD5D" stroke-width="1.5" stroke-linecap="round" stroke-linejoin="round"/>
<path d="M7.99609 22.6694H9.32998" stroke="#06AD5D" stroke-width="1.5" stroke-linecap="round" stroke-linejoin="round"/>
<path d="M13.332 22.6694H14.6659" stroke="#06AD5D" stroke-width="1.5" stroke-linecap="round" stroke-linejoin="round"/>
<path d="M7.99609 22.6694H9.32998" stroke="#06AD5D" stroke-width="1.5" stroke-linecap="round" stroke-linejoin="round"/>
<path d="M13.332 22.6694H14.6659" stroke="#06AD5D" stroke-width="1.5" stroke-linecap="round" stroke-linejoin="round"/>
<path d="M24.0005 10.6644H3.99219" stroke="#06AD5D" stroke-width="1.5" stroke-linecap="round" stroke-linejoin="round"/>
<path d="M14.6633 26.6711H6.65997C5.18659 26.6711 3.99219 25.4767 3.99219 24.0033V6.66277C3.99219 5.1894 5.18659 3.995 6.65997 3.995H21.3327C22.8061 3.995 24.0005 5.1894 24.0005 6.66277V14.6661" stroke="#06AD5D" stroke-width="1.5" stroke-linecap="round" stroke-linejoin="round"/>
<path d="M7.99609 14.6661H9.32998" stroke="#06AD5D" stroke-width="1.5" stroke-linecap="round" stroke-linejoin="round"/>
<path d="M13.332 14.6661H14.6659" stroke="#06AD5D" stroke-width="1.5" stroke-linecap="round" stroke-linejoin="round"/>
<path d="M18.668 14.6661H20.0019" stroke="#06AD5D" stroke-width="1.5" stroke-linecap="round" stroke-linejoin="round"/>
<path d="M18.6693 19.8679C18.6693 20.8989 20.7592 21.7351 23.3372 21.7351C25.9153 21.7351 28.0039 20.8989 28.0039 19.8679C28.0039 18.8356 25.9126 18.0007 23.3359 18.0007C20.7592 18.0007 18.6693 18.837 18.668 19.8679" stroke="#06AD5D" stroke-width="1.5" stroke-linecap="round" stroke-linejoin="round"/>
</svg>
