<svg width="24" height="24" viewBox="0 0 24 24" fill="none" xmlns="http://www.w3.org/2000/svg">
<path d="M18.1315 1.36665C21.1854 1.94367 15.0775 0.789459 18.1315 1.36665V1.36665Z" fill="#1F2226" stroke="#1F2226" stroke-width="0.6"/>
<path d="M18.1315 1.36676C15.0775 0.789569 12.1235 2.80496 11.5465 5.85895C11.261 7.37016 11.4888 9.51263 12.1268 11.3172C12.6698 12.8533 13.4323 13.9757 14.3356 14.5988C14.0089 14.8526 13.7884 15.2121 13.7109 15.6222C13.6898 15.7339 13.714 15.8494 13.778 15.9434C13.8421 16.0373 13.9409 16.1019 14.0526 16.123L14.8384 16.278L14.3265 18.9879C14.2826 19.2205 14.4355 19.4448 14.6682 19.4887C14.6951 19.4938 14.7219 19.4963 14.7483 19.4963C14.9503 19.4963 15.1302 19.3528 15.1691 19.147L15.681 16.4372C15.895 16.4776 16.6696 16.6615 16.8669 16.5269C16.9608 16.4629 17.0255 16.3641 17.0465 16.2524C17.124 15.8424 17.0499 15.4275 16.8385 15.072C17.9067 14.8213 19.0262 14.054 20.0922 12.8221C21.3445 11.3747 22.3382 9.46302 22.6237 7.95181C23.2007 4.89779 21.1855 1.94378 18.1315 1.36676ZM15.5181 15.5273L14.7483 15.3818C14.7941 15.33 14.8468 15.2834 14.9055 15.2434C15.0907 15.117 15.3142 15.0704 15.5346 15.112C15.5547 15.1158 15.5744 15.121 15.5939 15.1261C15.7891 15.1776 15.9577 15.2954 16.0725 15.4639C16.1126 15.5225 16.1446 15.585 16.1683 15.65L15.5181 15.5273ZM21.7812 7.79258C21.5217 9.16583 20.6042 10.9198 19.4437 12.261C18.1596 13.745 16.7928 14.4771 15.6939 14.2695C14.5949 14.0618 13.5893 12.8815 12.9352 11.0313C12.3439 9.35919 12.1296 7.39142 12.389 6.01813C12.8219 3.72711 14.8321 2.12573 17.0832 2.12573C17.3764 2.12573 17.6739 2.15296 17.9723 2.20929C20.5618 2.69851 22.2704 5.20321 21.7812 7.79258Z" fill="#1F2226" stroke="#1F2226" stroke-width="0.6"/>
<path d="M10.1977 14.1085C10.1967 14.1112 10.1967 14.1111 10.1977 14.1085V14.1085Z" fill="#1F2226" stroke="#1F2226" stroke-width="0.6"/>
<path d="M10.8129 9.10252C10.3166 6.47581 7.77592 4.74256 5.14929 5.23885C3.87688 5.47924 2.77428 6.20078 2.0445 7.27049C1.31477 8.3402 1.04527 9.63007 1.28566 10.9025C1.5299 12.1953 2.37891 13.8294 3.44854 15.0656C4.33458 16.0896 5.26582 16.7397 6.16057 16.975C6.00584 17.2727 5.95495 17.6112 6.01823 17.946C6.03932 18.0577 6.10398 18.1565 6.19791 18.2205C6.3697 18.3378 7.03131 18.1444 7.21776 18.1092L7.98771 21.6828C8.02659 21.8886 8.20649 22.032 8.4085 22.032C8.43491 22.032 8.46171 22.0295 8.48859 22.0245C8.72126 21.9805 8.87423 21.7563 8.83028 21.5236L8.01704 17.946L8.63461 17.888C8.86728 17.844 9.02025 17.6197 8.97631 17.3871C8.9114 17.0434 8.73348 16.7494 8.48859 16.5352C9.23611 15.9899 9.8663 15.0451 10.3178 13.7681C10.2578 13.9379 10.2034 14.0916 10.1975 14.1084C10.202 14.0956 10.2361 13.9994 10.3178 13.7681C10.4345 13.4381 10.4804 13.3081 10.4852 13.2948C10.4785 13.3135 10.3938 13.5534 10.3178 13.7681C10.8627 12.2269 11.0571 10.3952 10.8129 9.10252ZM7.43067 17.2428L6.9405 17.3354C6.94736 17.3239 6.95457 17.3127 6.96215 17.3015C7.05965 17.1586 7.207 17.0622 7.37699 17.0301C7.38136 17.0292 7.38578 17.029 7.39015 17.0282C7.42634 17.0221 7.46261 17.0186 7.49862 17.0186C7.62754 17.0186 7.75345 17.0572 7.86226 17.1315C7.87341 17.1391 7.88426 17.147 7.8948 17.1551L7.43067 17.2428ZM7.21776 16.1875C6.30856 16.3592 5.17103 15.7459 4.09694 14.5045C3.11915 13.3745 2.34637 11.8981 2.12819 10.7433C1.93029 9.69592 2.15216 8.63422 2.7528 7.75371C3.35345 6.87319 4.2611 6.27928 5.30843 6.08142C5.55769 6.03431 5.80593 6.01163 6.05086 6.01163C7.93026 6.01163 9.60893 7.34886 9.97031 9.26171C10.4098 11.5883 9.23967 15.8056 7.21776 16.1875Z" fill="#1F2226"/>
<path d="M10.3178 13.7681C9.8663 15.0451 9.23611 15.9899 8.48859 16.5352C8.73348 16.7494 8.9114 17.0434 8.97631 17.3871C9.02025 17.6197 8.86728 17.844 8.63461 17.888L8.01704 17.946L8.83028 21.5236C8.87423 21.7563 8.72126 21.9805 8.48859 22.0245C8.46171 22.0295 8.43491 22.032 8.4085 22.032C8.20649 22.032 8.02659 21.8886 7.98771 21.6828L7.21776 18.1092C7.03131 18.1444 6.3697 18.3378 6.19791 18.2205C6.10398 18.1565 6.03932 18.0577 6.01823 17.946C5.95495 17.6112 6.00584 17.2727 6.16057 16.975C5.26582 16.7397 4.33458 16.0896 3.44854 15.0656C2.37891 13.8294 1.5299 12.1953 1.28566 10.9025C1.04527 9.63007 1.31477 8.3402 2.0445 7.27049C2.77428 6.20078 3.87688 5.47924 5.14929 5.23885C7.77592 4.74256 10.3166 6.47581 10.8129 9.10252C11.0571 10.3952 10.8627 12.2269 10.3178 13.7681ZM10.3178 13.7681C10.2578 13.9379 10.2034 14.0916 10.1975 14.1084C10.202 14.0956 10.2361 13.9994 10.3178 13.7681ZM10.3178 13.7681C10.4345 13.4381 10.4804 13.3081 10.4852 13.2948C10.4785 13.3135 10.3938 13.5534 10.3178 13.7681ZM7.43067 17.2428L6.9405 17.3354C6.94736 17.3239 6.95457 17.3127 6.96215 17.3015C7.05965 17.1586 7.207 17.0622 7.37699 17.0301C7.38136 17.0292 7.38578 17.029 7.39015 17.0282C7.42634 17.0221 7.46261 17.0186 7.49862 17.0186C7.62754 17.0186 7.75345 17.0572 7.86226 17.1315C7.87341 17.1391 7.88426 17.147 7.8948 17.1551L7.43067 17.2428ZM7.21776 16.1875C6.30856 16.3592 5.17103 15.7459 4.09694 14.5045C3.11915 13.3745 2.34637 11.8981 2.12819 10.7433C1.93029 9.69592 2.15216 8.63422 2.7528 7.75371C3.35345 6.87319 4.2611 6.27928 5.30843 6.08142C5.55769 6.03431 5.80593 6.01163 6.05086 6.01163C7.93026 6.01163 9.60893 7.34886 9.97031 9.26171C10.4098 11.5883 9.23967 15.8056 7.21776 16.1875Z" stroke="#1F2226" stroke-width="0.6"/>
<path d="M10.4852 13.2954C10.4859 13.2933 10.4859 13.2933 10.4852 13.2954V13.2954Z" fill="#1F2226" stroke="#1F2226" stroke-width="0.6"/>
</svg>
