<svg width="33" height="32" viewBox="0 0 33 32" fill="none" xmlns="http://www.w3.org/2000/svg">
    <g clip-path="url(#clip0_16226_25733)">
        <path
            d="M16.4998 32.0002C25.3363 32.0002 32.4997 24.8368 32.4997 16.0003C32.4997 7.16386 25.3363 0.000488281 16.4998 0.000488281C7.66337 0.000488281 0.5 7.16386 0.5 16.0003C0.5 24.8368 7.66337 32.0002 16.4998 32.0002Z"
            fill="#26AD4F" />
        <path
            d="M14.251 24.7681L6.13557 13.658C6.04813 13.5384 6.07452 13.3709 6.19449 13.2838C6.24035 13.2505 6.29563 13.2325 6.35238 13.2324L11.1482 13.2221C11.4427 13.2215 11.7196 13.3615 11.8929 13.5987L14.508 17.1788C14.6299 17.3458 14.8646 17.3826 15.0321 17.2611C15.0569 17.2431 15.0794 17.2221 15.0991 17.1987L20.7653 10.4496C20.969 10.2071 21.2704 10.0673 21.5877 10.0684L26.4962 10.0843C26.6746 10.0848 26.8188 10.2294 26.8182 10.4072C26.8179 10.4823 26.7913 10.5551 26.7429 10.6127L14.842 24.788C14.7091 24.9463 14.4725 24.9673 14.3135 24.8348C14.29 24.8152 14.269 24.7928 14.251 24.7681Z"
            fill="white" />
    </g>
    <defs>
        <clipPath id="clip0_16226_25733">
            <rect width="32" height="32" fill="white" transform="translate(0.5)" />
        </clipPath>
    </defs>
</svg>