<svg width="60" height="61" viewBox="0 0 60 61" fill="none" xmlns="http://www.w3.org/2000/svg">
<g clip-path="url(#clip0_9336_22367)">
<path d="M29.9997 60.4999C46.5681 60.4999 59.9994 47.0686 59.9994 30.5002C59.9994 13.9318 46.5681 0.500488 29.9997 0.500488C13.4313 0.500488 0 13.9318 0 30.5002C0 47.0686 13.4313 60.4999 29.9997 60.4999Z" fill="#26AD4F"/>
<path d="M25.7818 46.9405L10.5655 26.1089C10.4015 25.8848 10.451 25.5706 10.6759 25.4073C10.7619 25.3449 10.8656 25.3111 10.972 25.311L19.9642 25.2917C20.5163 25.2905 21.0355 25.5531 21.3605 25.9978L26.2638 32.7105C26.4924 33.0236 26.9324 33.0926 27.2465 32.8648C27.293 32.8311 27.3352 32.7918 27.3721 32.7478L37.9963 20.0933C38.3782 19.6385 38.9432 19.3765 39.5383 19.3784L48.7416 19.4082C49.0761 19.4093 49.3465 19.6804 49.3454 20.0137C49.3449 20.1546 49.295 20.291 49.2042 20.3991L26.8901 46.9777C26.6408 47.2746 26.1971 47.3139 25.8991 47.0655C25.8551 47.0288 25.8157 46.9868 25.7818 46.9405Z" fill="white"/>
</g>
<defs>
<clipPath id="clip0_9336_22367">
<rect width="60" height="60" fill="white" transform="translate(0 0.5)"/>
</clipPath>
</defs>
</svg>
