<svg width="20" height="20" viewBox="0 0 20 20" fill="none" xmlns="http://www.w3.org/2000/svg">
<g clip-path="url(#clip0_2620_86941)">
<path d="M17.7837 13.5904L16.5643 8.94316V0.371719C16.5643 0.166367 16.3979 0 16.1926 0H3.8073C3.60203 0 3.43558 0.166367 3.43558 0.371719V7.47344L2.22758 10.7105C2.18933 10.813 2.1982 10.9272 2.2518 11.0227C2.30543 11.118 2.3984 11.1849 2.50586 11.2055L3.43555 11.3837V19.6284C3.43555 19.8337 3.60199 20.0001 3.80726 20.0001H16.1927C16.3979 20.0001 16.5644 19.8337 16.5644 19.6284V13.8986L17.3542 14.0499C17.3775 14.0543 17.4009 14.0565 17.4241 14.0565C17.5261 14.0565 17.6247 14.0145 17.6957 13.9387C17.7829 13.8453 17.8161 13.7139 17.7837 13.5904ZM4.17894 0.743437H15.8209V8.57289L15.3773 8.52094V6.24777C15.3773 6.04242 15.2109 5.87605 15.0056 5.87605H12.5523C12.3471 5.87605 12.1806 6.04242 12.1806 6.24777V8.14656L11.5983 8.07836V6.24777C11.5983 6.04242 11.4319 5.87605 11.2266 5.87605H8.77328C8.56801 5.87605 8.40156 6.04242 8.40156 6.24777V7.70395L7.81922 7.63574V6.24777C7.81922 6.04242 7.65277 5.87605 7.4475 5.87605H4.99469C4.78941 5.87605 4.62297 6.04242 4.62297 6.24777V7.26137L4.17891 7.20934V0.743437H4.17894ZM14.6339 6.61945V8.43383L12.9241 8.23355V6.61945H14.6339ZM10.8549 6.61941V7.99121L9.145 7.79094V6.61941H10.8549ZM7.07582 6.61945V7.54863L5.36644 7.3484V6.61945H7.07582ZM15.821 19.2566H15.8209H4.17898V11.5261L15.8209 13.7562V19.2566H15.821ZM3.07789 10.5582L4.05375 7.94316L15.8973 9.33027L16.9149 13.2087L3.07789 10.5582Z" fill="#1F2226" stroke="#1F2226" stroke-width="0.4"/>
<path d="M7.44772 2.1084H4.99452C4.78925 2.1084 4.6228 2.27477 4.6228 2.48012V6.04832C4.6228 6.25367 4.78925 6.42004 4.99452 6.42004H7.44772C7.653 6.42004 7.81944 6.25367 7.81944 6.04832V2.48008C7.81944 2.27477 7.653 2.1084 7.44772 2.1084ZM7.07601 5.6766H5.36624V2.8518H7.07601V5.6766Z" fill="#1F2226" stroke="#1F2226" stroke-width="0.4"/>
<path d="M11.2266 2.1084H8.77336C8.56809 2.1084 8.40164 2.27477 8.40164 2.48012V6.04832C8.40164 6.25367 8.56809 6.42004 8.77336 6.42004H11.2266C11.4318 6.42004 11.5983 6.25367 11.5983 6.04832V2.48008C11.5983 2.27477 11.4319 2.1084 11.2266 2.1084ZM10.8549 5.6766H9.14512V2.8518H10.8549V5.6766Z" fill="#1F2226" stroke="#1F2226" stroke-width="0.4"/>
<path d="M15.0054 2.1084H12.5522C12.347 2.1084 12.1805 2.27477 12.1805 2.48012V6.04832C12.1805 6.25367 12.3469 6.42004 12.5522 6.42004H15.0054C15.2107 6.42004 15.3772 6.25367 15.3772 6.04832V2.48008C15.3772 2.27477 15.2107 2.1084 15.0054 2.1084ZM14.6337 5.6766H12.9239V2.8518H14.6337V5.6766Z" fill="#1F2226" stroke="#1F2226" stroke-width="0.4"/>
</g>
<defs>
<clipPath id="clip0_2620_86941">
<rect width="20" height="20" fill="white"/>
</clipPath>
</defs>
</svg>