<svg width="24" height="24" viewBox="0 0 24 24" fill="none" xmlns="http://www.w3.org/2000/svg">
<g clip-path="url(#clip0_3505_86005)">
<path d="M21.3405 16.3085L19.8772 10.7318V0.446062C19.8772 0.199641 19.6775 0 19.4311 0H4.56877C4.32244 0 4.1227 0.199641 4.1227 0.446062V8.96813L2.67309 12.8526C2.6272 12.9756 2.63784 13.1127 2.70216 13.2272C2.76652 13.3417 2.87808 13.4219 3.00703 13.4467L4.12266 13.6604V23.554C4.12266 23.8005 4.32239 24.0001 4.56872 24.0001H19.4312C19.6775 24.0001 19.8773 23.8005 19.8773 23.554V16.6783L20.8251 16.8599C20.853 16.8652 20.8811 16.8678 20.909 16.8678C21.0313 16.8678 21.1497 16.8174 21.2348 16.7264C21.3394 16.6144 21.3793 16.4566 21.3405 16.3085ZM5.01474 0.892125H18.9851V10.2875L18.4528 10.2251V7.49733C18.4528 7.25091 18.253 7.05127 18.0067 7.05127H15.0628C14.8165 7.05127 14.6168 7.25091 14.6168 7.49733V9.77588L13.9179 9.69403V7.49733C13.9179 7.25091 13.7183 7.05127 13.4719 7.05127H10.5279C10.2816 7.05127 10.0819 7.25091 10.0819 7.49733V9.24473L9.38306 9.16289V7.49733C9.38306 7.25091 9.18333 7.05127 8.937 7.05127H5.99363C5.7473 7.05127 5.54756 7.25091 5.54756 7.49733V8.71364L5.01469 8.6512V0.892125H5.01474ZM17.5607 7.94334V10.1206L15.5089 9.88027V7.94334H17.5607ZM13.0259 7.9433V9.58945L10.974 9.34912V7.9433H13.0259ZM8.49099 7.94334V9.05836L6.43973 8.81808V7.94334H8.49099ZM18.9852 23.1079H18.9851H5.01478V13.8313L18.9851 16.5074V23.1079H18.9852ZM3.69347 12.6698L4.8645 9.5318L19.0768 11.1963L20.2979 15.8505L3.69347 12.6698Z" fill="#1F2226" stroke="#1F2226" stroke-width="0.4"/>
<path d="M8.93728 2.53003H5.99344C5.74711 2.53003 5.54737 2.72967 5.54737 2.97609V7.25794C5.54737 7.50436 5.74711 7.704 5.99344 7.704H8.93728C9.18361 7.704 9.38334 7.50436 9.38334 7.25794V2.97604C9.38334 2.72967 9.18361 2.53003 8.93728 2.53003ZM8.49122 6.81187H6.4395V3.42211H8.49122V6.81187Z" fill="#1F2226" stroke="#1F2226" stroke-width="0.4"/>
<path d="M13.4719 2.53003H10.528C10.2817 2.53003 10.082 2.72967 10.082 2.97609V7.25794C10.082 7.50436 10.2817 7.704 10.528 7.704H13.4719C13.7182 7.704 13.9179 7.50436 13.9179 7.25794V2.97604C13.9179 2.72967 13.7183 2.53003 13.4719 2.53003ZM13.0259 6.81187H10.9741V3.42211H13.0259V6.81187Z" fill="#1F2226" stroke="#1F2226" stroke-width="0.4"/>
<path d="M18.0065 2.53003H15.0627C14.8163 2.53003 14.6166 2.72967 14.6166 2.97609V7.25794C14.6166 7.50436 14.8163 7.704 15.0627 7.704H18.0065C18.2528 7.704 18.4526 7.50436 18.4526 7.25794V2.97604C18.4526 2.72967 18.2529 2.53003 18.0065 2.53003ZM17.5605 6.81187H15.5087V3.42211H17.5605V6.81187Z" fill="#1F2226" stroke="#1F2226" stroke-width="0.4"/>
</g>
<defs>
<clipPath id="clip0_3505_86005">
<rect width="24" height="24" fill="white"/>
</clipPath>
</defs>
</svg>
