<svg width="20" height="20" viewBox="0 0 20 20" fill="none" xmlns="http://www.w3.org/2000/svg">
<path d="M10 13.1325V13.125" stroke="#CCCCCC" stroke-linecap="round" stroke-linejoin="round"/>
<path d="M8.125 8.75C8.125 8.37916 8.23497 8.01665 8.44099 7.70831C8.64702 7.39996 8.93986 7.15964 9.28247 7.01773C9.62508 6.87581 10.0021 6.83868 10.3658 6.91103C10.7295 6.98338 11.0636 7.16195 11.3258 7.42418C11.588 7.6864 11.7666 8.02049 11.839 8.38421C11.9113 8.74792 11.8742 9.12492 11.7323 9.46753C11.5904 9.81014 11.35 10.103 11.0417 10.309C10.7334 10.515 10.3708 10.625 10 10.625L10 11.0417" stroke="#CCCCCC" stroke-linecap="round" stroke-linejoin="round"/>
<path d="M3.95831 9.99968C3.95831 13.3364 6.66326 16.0413 9.99998 16.0413C13.3367 16.0413 16.0416 13.3364 16.0416 9.99968C16.0416 6.66295 13.3367 3.95801 9.99998 3.95801C6.66326 3.95801 3.95831 6.66295 3.95831 9.99968Z" stroke="#CCCCCC"/>
</svg>
