<svg width="32" height="32" viewBox="0 0 32 32" fill="none" xmlns="http://www.w3.org/2000/svg">
<path d="M15.7227 12.2735L20.2749 7.72131" stroke="#06AD5D" stroke-width="1.5" stroke-linecap="round" stroke-linejoin="round"/>
<path d="M15.4319 7.53935C15.4321 7.47865 15.4814 7.42959 15.5421 7.4297C15.6028 7.42981 15.652 7.47905 15.652 7.53975C15.652 7.60045 15.6028 7.64968 15.5421 7.64979C15.4814 7.6499 15.4321 7.60085 15.4319 7.54015V7.53935" stroke="#06AD5D" stroke-width="1.5" stroke-linecap="round" stroke-linejoin="round"/>
<path d="M10.6641 9.33046V7.06284C10.6641 4.63178 12.6348 2.66101 15.0659 2.66101H20.935C23.3661 2.66101 25.3368 4.63178 25.3368 7.06284V12.932C25.3368 15.363 23.3661 17.3338 20.935 17.3338H20.0013" stroke="#06AD5D" stroke-width="1.5" stroke-linecap="round" stroke-linejoin="round"/>
<path d="M20.5661 12.4556C20.5658 12.5163 20.5165 12.5653 20.4558 12.5652C20.3951 12.5651 20.346 12.5159 20.346 12.4552C20.346 12.3945 20.3951 12.3452 20.4558 12.3451C20.5165 12.345 20.5658 12.3941 20.5661 12.4548V12.4556" stroke="#06AD5D" stroke-width="1.5" stroke-linecap="round" stroke-linejoin="round"/>
<path d="M25.3349 21.3354V28.0049" stroke="#06AD5D" stroke-width="1.5" stroke-linecap="round" stroke-linejoin="round"/>
<path d="M22.668 24.0032L25.3357 21.3354" stroke="#06AD5D" stroke-width="1.5" stroke-linecap="round" stroke-linejoin="round"/>
<path d="M28.0037 24.0032L25.3359 21.3354" stroke="#06AD5D" stroke-width="1.5" stroke-linecap="round" stroke-linejoin="round"/>
<path d="M3.99219 16.8003V25.8707C3.99371 27.0491 6.381 28.005 9.32774 28.005C12.2745 28.005 14.6618 27.0491 14.6633 25.8707V16.8003" stroke="#06AD5D" stroke-width="1.5" stroke-linecap="round" stroke-linejoin="round"/>
<path d="M14.6618 16.8002C14.6618 17.9786 12.273 18.9345 9.32622 18.9345C6.37948 18.9345 3.99219 17.9786 3.99219 16.8002C3.99219 15.6203 6.38252 14.666 9.32774 14.666C12.273 14.666 14.6618 15.6218 14.6633 16.8002" stroke="#06AD5D" stroke-width="1.5" stroke-linecap="round" stroke-linejoin="round"/>
<path d="M3.99609 21.3354C3.99609 22.5138 6.38338 23.4697 9.33013 23.4697C12.2769 23.4697 14.6657 22.5138 14.6657 21.3354" stroke="#06AD5D" stroke-width="1.5" stroke-linecap="round" stroke-linejoin="round"/>
</svg>
