<svg fill="none" viewBox="0 0 32 32" xmlns="http://www.w3.org/2000/svg"><path d="m9.55859 22.2428h12.87471c1.6348 0 2.4785-.8513 2.4785-2.4635v-8.1361c0-1.6122-.8437-2.45594-2.4785-2.45594h-12.87471c-1.62723 0-2.47851.84374-2.47851 2.45594v8.1361c0 1.6197.85128 2.4635 2.47851 2.4635zm-.97935-10.464c0-.7232.38421-1.0848 1.07729-1.0848h12.67887c.6931 0 1.0773.3616 1.0773 1.0848v.5424h-14.83346zm1.07729 8.9573c-.69308 0-1.07729-.3616-1.07729-1.0848v-5.5597h14.83346v5.5597c0 .7232-.3842 1.0848-1.0773 1.0848zm1.02457-1.3636h1.8457c.4445 0 .7458-.2938.7458-.7157v-1.4012c0-.4219-.3013-.7157-.7458-.7157h-1.8457c-.437 0-.7383.2938-.7383.7157v1.4012c0 .4219.3013.7157.7383.7157z" fill="currentColor"/></svg>