<svg width="24" height="24" viewBox="0 0 24 24" fill="none" xmlns="http://www.w3.org/2000/svg">
<path d="M5.55908 18.243H18.4338C20.0686 18.243 20.9123 17.3917 20.9123 15.7796V7.64341C20.9123 6.03125 20.0686 5.1875 18.4338 5.1875H5.55908C3.93185 5.1875 3.08057 6.03125 3.08057 7.64341V15.7796C3.08057 17.3993 3.93185 18.243 5.55908 18.243ZM4.57973 7.77902C4.57973 7.0558 4.96394 6.6942 5.65702 6.6942H18.3359C19.0289 6.6942 19.4132 7.0558 19.4132 7.77902V8.32143H4.57973V7.77902ZM5.65702 16.7363C4.96394 16.7363 4.57973 16.3747 4.57973 15.6515V10.0918H19.4132V15.6515C19.4132 16.3747 19.0289 16.7363 18.3359 16.7363H5.65702ZM6.68157 15.3728H8.52727C8.97175 15.3728 9.27309 15.079 9.27309 14.6571V13.2559C9.27309 12.834 8.97175 12.5402 8.52727 12.5402H6.68157C6.24463 12.5402 5.94329 12.834 5.94329 13.2559V14.6571C5.94329 15.079 6.24463 15.3728 6.68157 15.3728Z" fill="#1F2226"/>
</svg>
