<svg width="18" height="18" viewBox="0 0 18 18" fill="none" xmlns="http://www.w3.org/2000/svg">
    <path
        d="M12.5523 5.4477C12.8159 5.71131 12.8159 6.13869 12.5523 6.4023L9.95475 9L12.5523 11.5977C12.7939 11.8393 12.8141 12.2186 12.6127 12.4832L12.5523 12.5523C12.2887 12.8159 11.8613 12.8159 11.5977 12.5523L9 9.95475L6.4023 12.5523C6.13869 12.8159 5.71131 12.8159 5.4477 12.5523C5.1841 12.2887 5.1841 11.8613 5.4477 11.5977L8.04525 9L5.4477 6.4023C5.20607 6.16066 5.18593 5.7814 5.38729 5.51683L5.4477 5.4477C5.71131 5.1841 6.13869 5.1841 6.4023 5.4477L9 8.04525L11.5977 5.4477C11.8613 5.1841 12.2887 5.1841 12.5523 5.4477Z"
        fill="#818C99" />
</svg>