<svg width="24" height="24" viewBox="0 0 24 24" fill="none" xmlns="http://www.w3.org/2000/svg">
<path d="M12.0021 3.60906C13.4122 1.06963 16.0769 0.75981 17.6 2.28289C18.8445 3.52735 18.8653 5.5366 17.4524 7.00102L18 6.99998C20.2091 6.99998 22 8.79085 22 11V11.4294C22 12.4364 21.8608 12.9764 21.5993 13.4653C21.3378 13.9541 20.9542 14.3378 20.4653 14.5993C20.319 14.6775 20.1682 14.7448 20.0016 14.8007L20 16.8722C20 18.6553 19.8143 19.3018 19.4657 19.9537C19.1171 20.6055 18.6055 21.1171 17.9537 21.4657C17.3018 21.8143 16.6553 22 14.8722 22H9.12777C7.34473 22 6.69816 21.8143 6.04631 21.4657C5.39446 21.1171 4.88288 20.6055 4.53427 19.9537C4.18565 19.3018 4 18.6553 4 16.8722L3.99936 14.801C3.83242 14.7451 3.68128 14.6777 3.53473 14.5993C3.04584 14.3378 2.66216 13.9541 2.4007 13.4653C2.16103 13.0171 2.02406 12.526 2.00289 11.6717L2 11C2 8.79085 3.79086 6.99998 6 6.99998L6.55091 7.00102C5.13799 5.5366 5.1588 3.52735 6.40326 2.28289C7.92752 0.75863 10.5952 1.07011 12.0021 3.60906ZM11.1 15H5.799L5.801 17.1155L5.80931 17.5429C5.83686 18.3893 5.92843 18.7437 6.12153 19.1048C6.30238 19.443 6.55702 19.6976 6.89519 19.8785C7.3118 20.1013 7.71955 20.1889 8.88446 20.199H11.1V15ZM18.2 15H12.9V20.199H15.1155L15.5429 20.1907C16.3893 20.1631 16.7437 20.0716 17.1048 19.8785C17.443 19.6976 17.6976 19.443 17.8785 19.1048C18.1013 18.6882 18.1889 18.2804 18.199 17.1155L18.2 15ZM18 8.79998L12.9116 8.80068C12.908 8.80093 12.9044 8.80117 12.9007 8.80141L12.9 13.199H18.524L18.6185 13.1982C19.1524 13.1877 19.3971 13.1293 19.6164 13.012C19.7916 12.9183 19.9183 12.7916 20.012 12.6164C20.1293 12.397 20.1877 12.1524 20.1983 11.6185L20.2 11C20.2 9.78496 19.215 8.79998 18 8.79998ZM11.0917 8.80068L6 8.79998C4.78497 8.79998 3.8 9.78496 3.8 11L3.80174 11.6185C3.81225 12.1524 3.87066 12.397 3.98796 12.6164C4.08166 12.7916 4.2084 12.9183 4.38361 13.012C4.61506 13.1358 4.87468 13.194 5.47271 13.1995L11.1 13.199L11.1006 8.80128C11.0976 8.80108 11.0946 8.80088 11.0917 8.80068ZM7.67606 3.55568C6.60685 4.62489 7.59914 6.63202 10.8488 6.9746L11.0972 6.99598C11.0981 6.98255 11.099 6.96915 11.0999 6.95578L11.103 6.99783C10.8434 3.53819 8.87416 2.35758 7.67606 3.55568ZM16.3272 3.55568C15.1291 2.35758 13.1599 3.53819 12.9002 6.99783L12.9037 6.96083C12.9045 6.97252 12.9053 6.98424 12.906 6.99598L13.1545 6.9746C16.4041 6.63202 17.3964 4.62489 16.3272 3.55568Z" fill="#1F2226"/>
</svg>
