<svg width="20" height="20" viewBox="0 0 20 20" fill="none" xmlns="http://www.w3.org/2000/svg">
<path d="M20 10.2232C20 9.54258 19.9433 8.86194 19.83 8.19519H10.2056V12.0428H15.7194C15.4926 13.2791 14.7555 14.3904 13.6782 15.0848V17.5851H16.9667C18.8944 15.8488 20 13.2791 20 10.2232Z" fill="#4285F4"/>
<path d="M10.2053 20.0001C12.9551 20.0001 15.2797 19.1111 16.9664 17.5832L13.678 15.083C12.7567 15.6941 11.5803 16.0413 10.2053 16.0413C7.54053 16.0413 5.28676 14.2772 4.47884 11.9159H1.09106V14.4995C2.82044 17.8749 6.34981 20.0001 10.2053 20.0001Z" fill="#34A853"/>
<path d="M4.48333 11.9174C4.05809 10.6812 4.05809 9.33396 4.48333 8.08374V5.51404H1.09519C-0.365064 8.33379 -0.365064 11.6675 1.09519 14.4872L4.48333 11.9174Z" fill="#FBBC04"/>
<path d="M10.2053 3.95928C11.6653 3.93148 13.0685 4.47326 14.1174 5.45943L17.0374 2.59799C15.1805 0.903381 12.7426 -0.0271905 10.2053 0.000605218C6.34981 0.000605218 2.82044 2.13971 1.09106 5.51502L4.47884 8.09862C5.28677 5.72337 7.54053 3.95928 10.2053 3.95928Z" fill="#EA4335"/>
</svg>
