<svg width="122" height="38" viewBox="0 0 122 38" fill="none" xmlns="http://www.w3.org/2000/svg">
<g clip-path="url(#clip0_6380_4703)">
<path fill-rule="evenodd" clip-rule="evenodd" d="M60.6494 12.0393C60.5967 12.0563 60.544 12.0729 60.4904 12.0881C60.0403 12.2149 59.5809 12.2816 59.0942 12.2548C59.0109 12.2504 58.927 12.2432 58.8422 12.2331C59.0542 11.8344 59.2741 11.4431 59.5067 11.0623C60.2045 9.92005 61.0179 8.87412 62.0843 8.01595C60.8938 8.68504 59.9361 9.59334 59.0812 10.6173C58.7959 10.9594 58.5227 11.3149 58.2556 11.6785C58.2553 11.6774 58.2559 11.6763 58.2556 11.6752C58.1971 11.3581 58.2092 11.0577 58.241 10.7596C58.2456 10.717 58.2504 10.6745 58.2556 10.632C58.4061 9.37202 58.921 8.33181 59.7726 7.50896C60.0567 7.23458 60.378 6.98453 60.7357 6.75837C61.2872 6.40909 61.8893 6.20316 62.5186 6.08766C62.7697 6.04164 63.025 6.00998 63.283 5.98931C63.6416 5.95883 63.9999 5.93713 64.3585 5.97597C64.3709 5.97715 64.3833 5.97847 64.3957 5.97979C64.4978 5.99239 64.5326 6.03651 64.5423 6.12474C64.7143 7.956 64.2522 9.54774 62.7857 10.7801C62.6985 10.8534 62.6098 10.9244 62.5207 10.9944C61.9532 11.4434 61.3447 11.8162 60.6494 12.0393ZM53.2839 8.7554C53.2839 7.78583 52.4873 7.00241 51.5031 7.00241C50.5188 7.00241 49.7223 7.78583 49.7223 8.7554V8.7614H49.7162V24.887H49.7223C49.7223 25.8565 50.5188 26.643 51.5031 26.643C52.4873 26.643 53.2839 25.8595 53.2839 24.8899H53.2899V8.75848H53.2839V8.7554ZM47.0238 11.4599H41.2937L41.2967 11.4568C41.2574 11.4568 41.2241 11.49 41.2241 11.5289V15.7644C41.2241 15.7761 41.2271 15.7873 41.2322 15.7972C41.2392 15.8103 41.2498 15.8213 41.2625 15.8288C41.2728 15.8348 41.2843 15.8386 41.2967 15.8395H46.7785C47.7749 15.8395 48.5835 16.6409 48.5835 17.6285C48.5835 18.6161 47.7749 19.4175 46.7785 19.4175C46.733 19.4175 46.6876 19.4146 46.6422 19.4115H41.2937C41.2737 19.4115 41.2549 19.4202 41.2416 19.434C41.2289 19.447 41.221 19.4646 41.221 19.4836V24.6316C41.2301 24.6978 41.2331 24.7697 41.2331 24.8388C41.2331 25.8834 40.3761 26.7329 39.3221 26.7329C38.2682 26.7329 37.4111 25.8864 37.4111 24.8388V24.7488V19.4115H37.405V15.8365H37.4111V11.4568H37.405V10.4004C37.405 8.99239 38.5559 7.85179 39.9763 7.85179H47.0238C48.0262 7.85179 48.8379 8.65631 48.8379 9.64993C48.8379 10.6434 48.0262 11.4479 47.0238 11.4479V11.4599ZM20.4389 7.85472C19.5061 7.86073 18.6944 8.38311 18.2886 9.14851L18.2614 9.11243L13.6246 16.5629C13.5943 16.6079 13.5277 16.6079 13.5005 16.5629L8.95154 9.11552L8.91213 9.13047C8.50028 8.37109 7.68856 7.8578 6.75884 7.85472C5.41107 7.85472 4.30566 8.99548 4.30566 10.3312V25.0249H4.31779C4.40866 25.9824 5.22333 26.7329 6.21368 26.7329C7.20404 26.7329 8.0187 25.9824 8.10959 25.0249H8.11868V14.7828C8.11868 14.7078 8.21553 14.6837 8.25493 14.7468L13.4974 23.3949C13.5246 23.443 13.5943 23.443 13.6216 23.3949L18.9549 14.7289C18.9943 14.6657 19.0912 14.6928 19.0912 14.7679V25.0249H19.1003C19.1911 25.9824 20.0059 26.7329 20.9962 26.7329C21.9865 26.7329 22.8012 25.9824 22.8921 25.0249H22.9011V10.3312C22.9011 8.98948 21.7927 7.84578 20.4389 7.85472ZM35.2184 13.306C34.3037 13.0268 33.3346 13.5282 33.0559 14.4256C33.0469 14.4557 33.0378 14.4887 33.0318 14.5187L30.5393 22.0892C30.518 22.1552 30.4272 22.1552 30.3999 22.0922L27.5107 14.8008C27.5015 14.7342 27.4884 14.6675 27.4711 14.6011C27.4541 14.5361 27.4331 14.4715 27.4077 14.4076C27.0624 13.5551 26.066 13.147 25.1816 13.4981C24.2973 13.8493 23.8612 14.8249 24.2065 15.6774C24.2125 15.6894 24.2186 15.7014 24.2216 15.7163H24.2186L28.392 25.3371C28.392 25.3371 28.8462 26.1475 28.5737 26.6848C27.3956 29.2904 25.1272 28.7531 25.1272 28.7531C25.1272 29.4735 25.7632 31.4487 27.8468 31.4487C30.7482 31.4487 32.5623 25.8744 32.5623 25.8744L36.3299 15.5633L36.3405 15.5355C36.3499 15.5107 36.3596 15.4852 36.3662 15.4613L36.3723 15.4462V15.4342C36.6539 14.5367 36.1391 13.5821 35.2214 13.303L35.2184 13.306ZM86.9738 19.9009C86.9738 15.7405 89.86 12.8287 94.0001 12.8287V12.8317C98.0675 12.8317 100.857 15.6834 101.02 19.5467C101.026 19.5909 101.03 19.6365 101.031 19.6824L101.032 19.7126L101.032 19.7508C101.032 19.7717 101.032 19.7925 101.031 19.813L101.029 19.8416L101.026 19.8829C100.96 20.7293 100.245 21.3958 99.3758 21.3958H90.7565C90.705 21.3958 90.6686 21.4468 90.6868 21.4949C91.2562 22.8847 92.5464 23.8542 94.0485 23.8542C95.2842 23.8542 96.1292 23.6861 96.6955 23.2899C96.9893 23.0377 97.3739 22.8876 97.7919 22.8876C98.7216 22.8876 99.4758 23.6351 99.4758 24.5566C99.4758 25.2761 98.7338 25.8603 98.5048 26.0403C98.4406 26.0909 98.4167 26.1097 98.4612 26.0906C97.3588 26.7179 95.8808 26.9731 94.0001 26.9731C89.9297 26.9731 86.9738 24.0613 86.9738 19.9009ZM90.6596 18.6581H97.4224C97.4708 18.6581 97.5072 18.6101 97.492 18.5621C96.9742 17.0342 95.6416 15.9416 94.0485 15.9416C92.4555 15.9416 91.0987 17.0342 90.5899 18.5621C90.5748 18.6101 90.6111 18.6581 90.6596 18.6581ZM61.3096 12.6637C57.2513 12.6637 53.9623 15.9236 53.9623 19.9459C53.9623 23.9684 57.2513 27.2283 61.3096 27.2283C65.3679 27.2283 68.6569 23.9684 68.6569 19.9459C68.6569 15.9236 65.3679 12.6637 61.3096 12.6637ZM61.355 23.6742C59.2774 23.6742 57.5905 22.0052 57.5905 19.943C57.5905 17.8807 59.2744 16.2117 61.355 16.2117C63.4357 16.2117 65.1195 17.8807 65.1195 19.943C65.1195 22.0052 63.4357 23.6742 61.355 23.6742ZM105.388 15.5363C105.415 15.4373 106.175 12.9338 109.376 12.9338H109.379C109.379 12.9338 109.74 15.0021 108.652 16.0797C108.206 16.5239 107.648 16.836 107.133 17.1246C106.604 17.4211 106.118 17.6928 105.842 18.0578C105.371 18.6774 105.375 19.0977 105.384 20.2432C105.386 20.4241 105.388 20.6229 105.388 20.8435C105.388 22.1493 105.381 24.1005 105.381 24.8058C105.388 24.8479 105.388 24.8899 105.388 24.932C105.388 24.977 105.385 25.022 105.381 25.0669V25.073C105.309 25.9735 104.549 26.685 103.619 26.685C102.689 26.685 101.929 25.9766 101.856 25.073H101.85V14.909C101.874 13.9604 102.656 13.201 103.619 13.201C104.582 13.201 105.363 13.9604 105.388 14.909V15.5363ZM114.89 18.4609L114.885 18.4595C113.571 18.1119 112.644 17.8667 112.644 16.8902C112.644 16.0678 114.422 15.3953 115.558 16.2779C115.872 16.6501 116.36 16.8873 116.905 16.8873C117.856 16.8873 118.629 16.1638 118.629 15.2693C118.629 14.5908 118.183 14.0085 117.553 13.7684C117.553 13.7684 115.93 12.8438 114.016 12.8438C112.102 12.8438 109.173 13.9515 109.173 16.8873C109.173 19.5597 110.619 20.1351 112.411 20.8487L112.413 20.8491L112.414 20.85C112.59 20.9199 112.769 20.9911 112.95 21.0657C112.965 21.0717 112.984 21.078 113.009 21.0846C113.041 21.0934 113.082 21.1027 113.129 21.1126C113.199 21.1273 113.285 21.1435 113.381 21.1622L113.39 21.1635C114.306 21.3379 116.238 21.7054 116.184 22.7767C116.106 24.3345 113.032 24.1575 112.356 23.359C112.047 22.9238 111.52 22.6386 110.924 22.6386C109.973 22.6386 109.201 23.362 109.201 24.2566C109.201 24.6318 109.337 24.977 109.564 25.2502C109.564 25.2502 110.548 27.0722 114.307 27.0722C118.065 27.0722 119.737 24.923 119.658 22.7256C119.573 20.4262 118.625 19.5198 115.664 18.6643L115.657 18.6703C115.391 18.5935 115.134 18.5254 114.89 18.4609ZM86.0258 13.2069C86.9314 13.4952 87.4311 14.4588 87.1555 15.3742L87.1525 15.3772L84.2481 24.977H84.242C83.8483 26.2557 82.4794 26.982 81.1801 26.5948C80.3109 26.3367 79.69 25.6464 79.4902 24.8328L77.7154 18.9674L75.9407 24.8358C75.7408 25.6464 75.1199 26.3336 74.2537 26.5919C72.9545 26.9791 71.5886 26.2557 71.1919 24.977H71.1858L68.2814 15.3742H68.2874C68.0149 14.4588 68.5116 13.4952 69.4171 13.2069C70.3348 12.9158 71.3191 13.4291 71.6189 14.3537L71.628 14.3806H71.631L73.6087 20.9155L75.5379 14.5367C75.55 14.4947 75.5621 14.4528 75.5772 14.4107C75.6236 14.2748 75.6911 14.147 75.7759 14.0273C75.7926 14.0037 75.8098 13.9803 75.828 13.9573C75.8438 13.9371 75.8601 13.9172 75.8771 13.8974C76.2768 13.4291 76.9552 13.1229 77.7215 13.1229C78.4877 13.1229 79.1661 13.432 79.5659 13.8974C79.6991 14.0535 79.8021 14.2245 79.8657 14.4107C79.8809 14.4528 79.893 14.4947 79.9051 14.5367L81.8343 20.9155L83.8119 14.3806H83.815L83.8171 14.3749L83.821 14.3664C83.8225 14.3622 83.8241 14.3579 83.8241 14.3537C84.1239 13.4291 85.1082 12.9158 86.0258 13.2069Z" fill="#CCCCCC"/>
</g>
<defs>
<clipPath id="clip0_6380_4703">
<rect width="115.389" height="25.515" fill="white" transform="translate(4.30566 5.95508)"/>
</clipPath>
</defs>
</svg>
