<svg width="35" height="49" viewBox="0 0 35 49" fill="none" xmlns="http://www.w3.org/2000/svg">
  <path d="M28.051 10.1801C27.931 10.9841 28.375 11.7521 28.987 12.2441C29.479 12.6281 30.031 12.7601 30.643 12.8201C31.699 12.9161 33.223 12.8201 33.907 11.8961C34.651 10.9001 33.763 9.65211 33.079 8.90811C31.975 7.70811 30.475 6.80811 28.915 6.35211C28.027 6.08811 27.091 5.96811 26.167 6.02811C25.243 6.08811 24.271 6.22011 23.635 6.90411C22.723 7.87611 22.975 9.42411 23.443 10.5401C24.535 13.1561 27.151 15.3761 29.863 16.1561C31.219 16.5401 33.115 16.6241 34.159 15.4841C35.263 14.2721 34.975 12.2921 33.595 11.4401C33.103 11.1401 32.647 11.9081 33.139 12.2201C34.075 12.7961 34.243 14.2121 33.403 14.9681C32.647 15.6521 31.351 15.5801 30.427 15.3641C28.219 14.8481 26.167 13.2521 24.919 11.3801C24.379 10.5761 23.923 9.62811 23.935 8.63211C23.935 8.05611 24.127 7.51611 24.679 7.22811C25.327 6.89211 26.239 6.88011 26.959 6.90411C28.399 6.96411 29.803 7.50411 31.003 8.29611C31.855 8.86011 32.791 9.64011 33.199 10.6121C33.607 11.5841 32.359 11.8721 31.615 11.9201C31.135 11.9561 30.643 11.9441 30.175 11.8241C29.623 11.6921 28.831 11.0561 28.939 10.4081C29.023 9.84411 28.159 9.59211 28.075 10.1681L28.051 10.1801Z" fill="black"/>
  <path d="M9.99321 5.66688C9.74121 6.29087 8.76919 6.43487 8.20519 6.27887C7.68919 6.13487 7.18521 5.84687 6.76521 5.53487C6.41721 5.28287 5.9972 4.93487 5.8532 4.51487C5.7092 4.05887 6.06921 3.75887 6.42921 3.55487C8.34921 2.42687 11.1812 2.57087 13.1372 3.47087C14.2532 3.97487 15.9572 4.98287 15.2972 6.42287C14.9252 7.22687 14.1812 7.82687 13.4252 8.25887C11.5772 9.32687 9.17721 9.77087 7.06521 9.41087C6.00921 9.23087 4.9412 8.83487 4.2092 8.01887C3.2612 6.95087 3.94522 5.17487 5.42122 5.12687C5.99722 5.10287 5.99722 4.20287 5.42122 4.22687C3.94522 4.27487 2.7452 5.57087 2.8532 7.05887C2.9612 8.43887 4.19722 9.38687 5.38522 9.86687C7.94122 10.9109 11.2052 10.4429 13.6052 9.18287C14.6612 8.61887 15.6812 7.80287 16.1492 6.67487C16.8932 4.89887 15.3212 3.57887 13.8812 2.83487C12.4412 2.09087 10.6892 1.77887 9.03319 1.92287C7.84519 2.03087 6.4532 2.29487 5.5172 3.09887C4.1492 4.26287 5.3972 5.73887 6.5252 6.47087C7.1252 6.86687 7.86921 7.23887 8.60121 7.25087C9.52521 7.26287 10.4972 6.78287 10.8452 5.90687C11.0612 5.36687 10.1972 5.13888 9.9812 5.66688H9.99321Z" fill="black"/>
  <path d="M24.032 25.036C22.844 26.356 21.668 27.676 20.48 28.996C20.312 29.188 20.1441 29.368 19.9761 29.56C19.5921 29.992 20.2281 30.628 20.6121 30.196C21.8001 28.876 22.9761 27.556 24.1641 26.236C24.3321 26.044 24.5001 25.864 24.6681 25.672C25.0521 25.24 24.416 24.604 24.032 25.036Z" fill="black"/>
  <path d="M26.6001 21.9752C28.0041 21.5192 29.4441 20.7872 30.3801 19.6112C30.4521 19.5152 30.5361 19.4192 30.5961 19.3112C30.8601 18.8792 30.2361 18.3872 29.8881 18.7712C28.9761 19.7552 28.0642 20.7272 27.1402 21.7112C27.0082 21.8552 26.8761 21.9872 26.7441 22.1312C26.3481 22.5512 26.9841 23.1872 27.3801 22.7672C28.2921 21.7832 29.2041 20.8112 30.1281 19.8272C30.2601 19.6832 30.3921 19.5512 30.5241 19.4072L29.8161 18.8672C29.8161 18.8672 29.7922 18.9152 29.7682 18.9392C29.7442 18.9632 29.7321 18.9872 29.7081 19.0232C29.6721 19.0832 29.7921 18.9152 29.7321 18.9992C29.7201 19.0232 29.6962 19.0352 29.6842 19.0592C29.5042 19.2752 29.3001 19.4792 29.0721 19.6712C29.0001 19.7312 28.9161 19.8032 28.8441 19.8632C28.9161 19.8032 28.7841 19.9112 28.7721 19.9112C28.7241 19.9472 28.6761 19.9832 28.6281 20.0072C28.4361 20.1392 28.2321 20.2712 28.0281 20.3912C27.4881 20.6912 26.9242 20.9312 26.3482 21.1232C25.7962 21.3032 26.0361 22.1672 26.5881 21.9872L26.6001 21.9752Z" fill="black"/>
  <path d="M9.19997 19.2519C11.228 20.3079 13.448 21.0999 15.668 21.6759C17.888 22.2519 20.2159 22.6479 22.5319 22.5879C23.1079 22.5759 23.1079 21.6759 22.5319 21.6879C20.2879 21.7359 18.068 21.3639 15.908 20.7999C13.748 20.2359 11.624 19.4919 9.65597 18.4599C9.13997 18.1959 8.68397 18.9639 9.19997 19.2399V19.2519Z" fill="black"/>
  <path d="M5.68528 16.5873C5.44528 15.1713 5.19326 13.7673 4.95326 12.3513L4.84526 11.7393C4.76126 11.2353 3.95728 11.3553 3.95728 11.8593C3.95728 12.3273 4.08928 12.8073 4.22128 13.2393C4.58128 14.3793 5.20525 15.3993 5.96126 16.3113C6.11725 16.5033 6.44125 16.4673 6.59725 16.3113C6.77725 16.1313 6.75325 15.8673 6.59725 15.6753C5.93725 14.8713 5.38527 13.9473 5.07327 12.9513C4.98927 12.6633 4.91725 12.3753 4.86925 12.0873C4.85725 12.0033 4.86925 12.1713 4.86925 12.1113C4.86925 12.0873 4.86925 12.0753 4.86925 12.0513C4.86925 12.0153 4.86925 11.9793 4.86925 11.9433C4.86925 11.9193 4.86925 11.8833 4.86925 11.8593L3.98126 11.9793C4.22126 13.3953 4.47324 14.7993 4.71324 16.2153L4.82128 16.8273C4.85728 17.0673 5.15727 17.1993 5.37327 17.1393C5.62527 17.0673 5.73328 16.8273 5.68528 16.5873Z" fill="black"/>
  <path d="M7.44814 28.527C7.12414 26.151 6.80014 23.787 6.47614 21.411C6.42814 21.075 6.38011 20.739 6.33211 20.403C6.24811 19.827 5.38415 20.079 5.46815 20.643C5.79215 23.019 6.11614 25.383 6.44014 27.759C6.48814 28.095 6.53614 28.431 6.58414 28.767C6.66814 29.343 7.53214 29.091 7.44814 28.527Z" fill="black"/>
  <path d="M7.79491 35.3678C6.77491 36.8438 5.74291 38.3318 4.72291 39.8078C4.63891 39.9398 4.63891 40.1318 4.72291 40.2638C5.65891 41.7998 7.24289 43.0358 8.89889 43.6838C11.1909 44.5838 13.9509 44.2238 16.1229 43.1438C16.3149 43.0478 16.3629 42.8198 16.3269 42.6398C15.9069 40.5758 15.4869 38.4998 15.0669 36.4358C14.9469 35.8718 14.0829 36.1118 14.2029 36.6758C14.6229 38.7398 15.0429 40.8158 15.4629 42.8798L15.6669 42.3758C13.6989 43.3478 11.1909 43.6478 9.1389 42.8198C7.7109 42.2438 6.3189 41.1398 5.5029 39.8078V40.2638C6.5229 38.7878 7.5549 37.2998 8.5749 35.8238C8.9109 35.3438 8.13091 34.8998 7.79491 35.3678Z" fill="black"/>
  <path d="M27.4051 15.0391C27.4051 15.0391 27.4291 15.0871 27.4411 15.1111C27.4651 15.1711 27.4771 15.1951 27.4411 15.1111C27.4531 15.1591 27.4772 15.1951 27.4892 15.2431C27.5372 15.3631 27.5731 15.4831 27.5971 15.6031C27.6091 15.6751 27.6332 15.7351 27.6452 15.8071C27.6452 15.8431 27.6571 15.8791 27.6691 15.9151C27.6691 15.9631 27.6691 15.8791 27.6691 15.8791C27.6691 15.9031 27.6691 15.9391 27.6691 15.9631C27.6811 16.1431 27.6932 16.3111 27.6812 16.4911C27.6812 16.5391 27.6812 16.5871 27.6812 16.6231C27.6812 16.7311 27.6812 16.5991 27.6812 16.6831C27.6692 16.7911 27.6452 16.8871 27.6212 16.9951C27.5132 17.4151 27.3091 17.7991 26.9971 18.1471C26.4811 18.7351 25.8211 19.1311 25.1131 19.4551C24.8971 19.5631 24.8372 19.8751 24.9572 20.0671C25.0892 20.2951 25.3531 20.3311 25.5691 20.2231C26.7931 19.6471 27.9571 18.7711 28.4131 17.4511C28.6771 16.7071 28.6531 15.8551 28.4131 15.0991C28.3531 14.9191 28.2811 14.7391 28.1971 14.5711C27.9211 14.0671 27.1412 14.5111 27.4172 15.0271L27.4051 15.0391Z" fill="black"/>
  <path d="M9.99215 9.39945C8.97215 9.63945 7.95215 10.2755 7.77215 11.3915C7.59215 12.5075 8.14414 13.4915 8.85214 14.2595C9.35614 14.7995 9.98015 15.2435 10.6282 15.5795C11.1442 15.8435 11.6002 15.0635 11.0842 14.7995C10.0282 14.2595 8.93615 13.3715 8.67215 12.1595C8.58815 11.7635 8.63616 11.3675 8.87616 11.0075C9.15216 10.6115 9.71613 10.3715 10.2321 10.2515C10.7961 10.1195 10.5562 9.25545 9.99215 9.38745V9.39945Z" fill="black"/>
  <path d="M2.97339 7.53942C3.04539 8.71542 3.29737 9.90342 3.63337 11.0314C4.19737 12.8674 5.20539 14.8594 7.06539 15.6634C8.32539 16.2154 9.70537 16.0834 10.9774 15.6274C11.5174 15.4354 11.2894 14.5594 10.7374 14.7634C9.72939 15.1234 8.63737 15.2914 7.60537 14.9194C6.80137 14.6314 6.15339 14.0074 5.67339 13.3234C4.72539 11.9434 4.2574 10.2634 3.9934 8.63142C3.9814 8.54742 3.9694 8.47543 3.9574 8.39143C3.9574 8.35543 3.95739 8.31943 3.94539 8.28343C3.92139 8.15143 3.94539 8.30742 3.94539 8.22342C3.93339 8.10342 3.92139 7.99542 3.90939 7.87542C3.89739 7.75542 3.8854 7.65942 3.8854 7.53942C3.8494 6.96342 2.9494 6.96342 2.9854 7.53942H2.97339Z" fill="black"/>
  <path d="M33.2131 15.2921C32.6491 16.1441 31.9651 16.9241 31.2331 17.6321C30.0211 18.8081 28.4371 19.9841 26.6611 19.9001C25.4371 19.8401 24.4411 19.0721 23.6611 18.1841C23.2771 17.7521 22.6411 18.3881 23.0251 18.8201C23.7931 19.7081 24.7892 20.4761 25.9652 20.7161C26.9612 20.9201 27.9571 20.7521 28.8811 20.3561C30.5851 19.6361 31.9891 18.2801 33.1411 16.8641C33.4291 16.5041 33.7291 16.1321 33.9811 15.7361C34.3051 15.2561 33.5252 14.8001 33.2012 15.2801L33.2131 15.2921Z" fill="black"/>
  <path d="M18.9067 11.26C18.4867 11.752 17.6228 11.716 17.0948 11.416C16.6508 11.164 16.2668 10.732 15.9668 10.336C15.4148 9.60399 14.8508 8.49999 16.0748 8.19999C18.0308 7.71999 20.4428 8.60799 21.9908 9.78399C22.9268 10.492 24.7148 12.22 23.8628 13.48C23.4068 14.164 22.5668 14.536 21.8108 14.752C19.7708 15.328 17.3828 15.04 15.4628 14.188C14.4548 13.744 13.4708 13.084 12.8828 12.136C12.5108 11.524 12.3308 10.816 12.7028 10.156C13.1108 9.44799 13.9627 9.09999 14.7427 9.33999C15.2947 9.50799 15.5348 8.64399 14.9828 8.47599C13.3508 7.97199 11.5628 9.26799 11.5748 10.996C11.5868 12.316 12.6308 13.468 13.6388 14.2C15.8468 15.796 19.0628 16.312 21.6908 15.712C22.7948 15.46 23.9348 14.932 24.5948 13.972C25.6868 12.4 24.1628 10.492 22.9868 9.44799C21.8108 8.40399 20.3828 7.71999 18.8708 7.39599C17.8028 7.16799 16.5308 7.02399 15.4868 7.41999C13.7708 8.06799 14.4788 9.90399 15.3308 10.972C15.7628 11.512 16.3028 12.076 16.9508 12.328C17.7668 12.64 18.9308 12.568 19.5308 11.872C19.9028 11.44 19.2668 10.792 18.8948 11.236L18.9067 11.26Z" fill="black"/>
  <path d="M19.2069 15.0512C18.5949 15.1352 17.9829 15.3032 17.3949 15.4952C16.3389 15.8552 15.2349 16.3833 14.5749 17.3193C14.1789 17.8833 14.0709 18.5552 14.1669 19.2272C14.2029 19.4672 14.5029 19.5992 14.7189 19.5392C14.9709 19.4672 15.0669 19.2272 15.0309 18.9872C15.0309 19.0472 15.0309 18.8912 15.0309 18.8552C15.0309 18.7952 15.0309 18.7232 15.0309 18.6632C15.0309 18.6032 15.0309 18.5552 15.0429 18.4952C15.0429 18.5912 15.0669 18.4112 15.0669 18.3752C15.0789 18.3272 15.0909 18.2673 15.1149 18.2193C15.1149 18.1833 15.1389 18.1593 15.1509 18.1233C15.1269 18.1833 15.1749 18.0633 15.1509 18.1233C15.1989 18.0153 15.2709 17.8952 15.3309 17.7992C15.3429 17.7752 15.4269 17.6672 15.3789 17.7272C15.4149 17.6792 15.4509 17.6312 15.4989 17.5952C15.5829 17.4992 15.6669 17.4152 15.7629 17.3432C15.8829 17.2352 15.8709 17.2472 15.9909 17.1632C16.1109 17.0792 16.2189 17.0072 16.3269 16.9472C16.7949 16.6712 17.1429 16.5272 17.6349 16.3592C18.0309 16.2272 18.4269 16.1193 18.8349 16.0233C19.0389 15.9753 19.2429 15.9392 19.4469 15.9032C19.6869 15.8672 19.8189 15.5672 19.7589 15.3512C19.6869 15.0872 19.4469 15.0032 19.2069 15.0392V15.0512Z" fill="black"/>
  <path d="M24.0321 13.1315C23.3601 15.6995 22.9401 19.5395 19.5921 19.7315C17.6601 19.8395 15.4041 19.1795 13.7481 18.1835C12.6081 17.4995 11.8401 16.4795 11.7681 15.1235C11.6721 13.4315 12.2241 11.7395 12.6561 10.1195C12.8001 9.55547 11.9361 9.31547 11.7921 9.87947C11.0241 12.7835 9.87209 16.4075 12.7281 18.5675C13.5201 19.1675 14.4561 19.5635 15.3921 19.8875C16.5561 20.2835 17.7801 20.5955 19.0161 20.6315C20.6601 20.6915 22.1481 20.1035 23.0961 18.7235C24.1641 17.1635 24.4521 15.1595 24.9201 13.3715C25.0641 12.8075 24.2001 12.5675 24.0561 13.1315H24.0321Z" fill="black"/>
  <path d="M12.2001 43.7079C12.2961 44.9799 12.4041 46.264 12.5001 47.536L12.5481 48.076L12.8841 47.644L11.1441 47.92L11.7081 48.352C11.6601 46.996 11.6121 45.628 11.5641 44.272L11.5401 43.684C11.5161 43.108 10.6161 43.108 10.6401 43.684C10.6881 45.04 10.7361 46.408 10.7841 47.764L10.8081 48.352C10.8081 48.664 11.0841 48.832 11.3721 48.784L13.1121 48.5079C13.2921 48.4839 13.4601 48.256 13.4481 48.076C13.3521 46.804 13.2441 45.52 13.1481 44.248L13.1001 43.7079C13.0761 43.4679 12.9081 43.252 12.6441 43.252C12.4161 43.252 12.1761 43.4559 12.1881 43.7079H12.2001Z" fill="black"/>
  <path d="M7.13614 42.519C6.48814 43.515 5.85215 44.523 5.20415 45.519C5.09615 45.675 5.13215 45.939 5.27615 46.059C5.75615 46.491 6.22415 46.923 6.70415 47.355C7.13615 47.739 7.77215 47.103 7.34015 46.719C6.86015 46.287 6.39215 45.855 5.91215 45.423L5.98415 45.963C6.63215 44.967 7.26813 43.959 7.91613 42.963C8.22813 42.471 7.44814 42.027 7.13614 42.507V42.519Z" fill="black"/>
  <path d="M9.66814 43.4678C9.35614 44.7518 9.04413 46.0478 8.72013 47.3318L8.58811 47.8958L9.14014 47.5838L7.04014 47.0318L7.35212 47.5838C7.82012 46.2878 8.27612 44.9918 8.74412 43.6958L8.94814 43.1318C9.14014 42.5798 8.27613 42.3518 8.08413 42.8918C7.61613 44.1878 7.16013 45.4838 6.69213 46.7798L6.48811 47.3438C6.40411 47.5718 6.58413 47.8358 6.80013 47.8958L8.90013 48.4478C9.12813 48.5078 9.39212 48.3758 9.45212 48.1358C9.76412 46.8518 10.0761 45.5558 10.4001 44.2718L10.5321 43.7078C10.6641 43.1438 9.80014 42.9038 9.66814 43.4678Z" fill="black"/>
  <path d="M27.1174 26.0798C25.8934 25.8038 24.5974 25.1198 23.8294 24.1238C22.8574 22.8638 22.8334 20.9798 23.2894 19.5158L22.7374 19.8278C23.9614 20.1038 25.2574 20.7878 26.0254 21.7838C26.9974 23.0438 27.0214 24.9278 26.5654 26.3918C26.3974 26.9438 27.2614 27.1838 27.4294 26.6318C27.8014 25.4078 27.8494 23.9558 27.4894 22.7318C26.9974 21.0878 25.6534 19.9838 24.1054 19.3358C23.7334 19.1798 23.3614 19.0358 22.9654 18.9518C22.7254 18.9038 22.4854 19.0238 22.4134 19.2638C22.0414 20.4878 21.9934 21.9398 22.3534 23.1638C22.8454 24.8078 24.1894 25.9118 25.7374 26.5598C26.1094 26.7158 26.4814 26.8598 26.8774 26.9438C27.4414 27.0638 27.6814 26.1998 27.1174 26.0798Z" fill="black"/>
  <path d="M3.7641 19.9357C4.1001 18.7717 4.84412 17.5597 5.84012 16.8637C7.18412 15.9157 9.09211 15.9997 10.5921 16.5637L10.2801 16.0117C9.94409 17.1757 9.20012 18.3877 8.20412 19.0837C6.86012 20.0317 4.95209 19.9477 3.45209 19.3837C2.91209 19.1797 2.67211 20.0437 3.21211 20.2477C4.43611 20.7157 5.92409 20.8357 7.19608 20.5117C8.80409 20.1037 9.96811 18.8437 10.6761 17.3917C10.8561 17.0197 11.0241 16.6357 11.1441 16.2397C11.2161 15.9877 11.0601 15.7717 10.8321 15.6877C9.60808 15.2197 8.12011 15.0997 6.84811 15.4237C5.24011 15.8317 4.07612 17.0917 3.36812 18.5437C3.18812 18.9157 3.0201 19.2997 2.9001 19.6957C2.7441 20.2477 3.6081 20.4877 3.7641 19.9357Z" fill="black"/>
  <path d="M22.928 9.17198C21.872 8.49998 20.876 7.39598 20.516 6.18398C20.06 4.65998 20.672 2.90798 21.596 1.67198L20.984 1.82798C22.04 2.49998 23.036 3.60398 23.396 4.81598C23.852 6.33998 23.24 8.09198 22.316 9.32798C21.968 9.79598 22.748 10.24 23.096 9.78398C24.164 8.36798 24.788 6.31598 24.26 4.57598C23.828 3.13598 22.7 1.85198 21.428 1.05998C21.2 0.91598 20.948 1.03598 20.816 1.21598C19.748 2.63198 19.124 4.68398 19.652 6.42398C20.084 7.86398 21.212 9.14798 22.484 9.93998C22.976 10.252 23.432 9.47198 22.94 9.15998L22.928 9.17198Z" fill="black"/>
  <path d="M10.7108 16.1441L9.42676 18.8681C9.42676 18.8681 13.5188 20.8001 16.0868 21.3281C18.6548 21.8561 22.7468 21.9521 22.7468 21.9521L22.9628 18.9881C22.9628 18.9881 20.6108 20.8601 16.6868 19.8161C12.7628 18.7721 10.7108 16.1321 10.7108 16.1321V16.1441Z" fill="black"/>
  <path d="M5.40796 14.0918C5.40796 14.0918 7.93995 16.1078 8.85195 15.9038C9.76395 15.6998 7.08795 16.0718 7.08795 16.0718C7.08795 16.0718 5.53996 14.6798 5.40796 14.0918Z" fill="black"/>
  <path d="M27.944 20.2109V21.0869L26.7681 21.5429L25.592 20.4029L27.944 20.2109Z" fill="black"/>
  <path d="M5.37222 28.8034C5.72022 28.9594 6.04421 29.1394 6.34421 29.3674C6.46421 29.4514 6.68022 29.4514 6.80022 29.3674L10.2082 26.8354C10.4002 26.6914 10.6882 26.4154 10.9282 26.4874C11.4682 26.6434 11.1682 27.5554 11.0002 27.8674C10.6762 28.4434 10.2922 28.9954 9.94421 29.5474C9.81221 29.7634 9.90822 30.0274 10.1002 30.1594C10.9762 30.7354 12.0922 31.0594 13.1362 31.1194C13.5682 31.1434 13.9882 31.0834 14.4202 31.0114C14.8522 30.9394 14.9722 31.1314 15.0562 31.5394C15.2242 32.3914 14.8282 33.3754 14.3122 34.0474C13.7962 34.7194 13.1602 35.4634 12.2842 35.6674C10.5922 36.0514 8.78023 35.4994 7.30423 34.6714C6.00823 33.9394 4.9642 32.8594 3.8602 31.8634C3.4282 31.4794 2.79221 32.1154 3.22421 32.4994C4.36421 33.5194 5.44423 34.6354 6.77623 35.4034C8.39623 36.3394 10.3402 36.9154 12.2242 36.5914C12.8722 36.4834 13.4602 36.2794 13.9162 35.7994C14.2642 35.4274 14.6242 35.0674 14.9482 34.6834C15.4762 34.0354 15.9322 33.0754 15.9922 32.2354C16.0402 31.5514 15.9202 30.5914 15.2482 30.2074C14.8642 29.9914 14.4922 30.0754 14.0842 30.1474C13.4962 30.2434 12.8842 30.2194 12.2962 30.0754C11.7082 29.9314 11.0842 29.7034 10.5682 29.3674L10.7242 29.9794C11.1442 29.3074 11.7082 28.6114 11.9842 27.8674C12.4282 26.6674 11.6482 24.9874 10.1962 25.7434C9.5002 26.1034 8.88822 26.6914 8.26422 27.1474L6.35622 28.5634H6.81223C6.50023 28.3474 6.17623 28.1554 5.84023 27.9994C5.31223 27.7594 4.85623 28.5394 5.38423 28.7794L5.37222 28.8034Z" fill="black"/>
  <path d="M5.93608 28.1551C5.56408 27.6631 5.15609 27.1951 4.67609 26.8111C4.35209 26.5471 3.96808 26.2951 3.53608 26.2711C3.10408 26.2471 2.74407 26.5111 2.40807 26.7271C1.56807 27.2551 0.536078 28.0711 0.500078 29.1511C0.476078 29.9791 1.22006 30.7231 1.76006 31.2511C2.24006 31.7311 2.76807 32.1631 3.30807 32.5711C3.53607 32.7391 3.9201 32.5711 3.9681 32.3071C4.0761 31.7911 4.23206 31.2751 4.42406 30.7711C4.70007 30.0391 5.0961 29.1511 5.7681 28.7671C6.2721 28.4791 5.81609 27.6991 5.31209 27.9871C4.44809 28.4791 3.96809 29.4751 3.62009 30.3631C3.40409 30.9151 3.22409 31.4911 3.10409 32.0671L3.76408 31.8031C3.76408 31.8031 3.70407 31.7671 3.68007 31.7431C3.72807 31.7911 3.71608 31.7671 3.65608 31.7191C3.60808 31.6831 3.56009 31.6471 3.51209 31.6111C3.26009 31.4071 3.00808 31.1911 2.75608 30.9751C2.27608 30.5431 1.65208 29.9791 1.43608 29.4151C1.38808 29.2831 1.37608 29.2711 1.40008 29.1031C1.42408 28.9471 1.50808 28.7911 1.59208 28.6591C1.82008 28.2871 2.18008 27.9751 2.52808 27.7231C2.69608 27.6031 2.86407 27.4831 3.04407 27.3871C3.12807 27.3391 3.20009 27.2911 3.28409 27.2551C3.32009 27.2311 3.36809 27.2071 3.40409 27.1951C3.50009 27.1471 3.36807 27.1951 3.45207 27.1831C3.35607 27.1951 3.48806 27.1831 3.52406 27.1831C3.44006 27.1831 3.62008 27.2191 3.65608 27.2311C3.62008 27.2191 3.75207 27.2911 3.78807 27.3031C3.87207 27.3511 3.95608 27.4111 4.02808 27.4711C4.30408 27.6751 4.56807 27.9631 4.80807 28.2271C4.90407 28.3351 5.00006 28.4551 5.09606 28.5631C5.12006 28.5991 5.14407 28.6351 5.18007 28.6591C5.08407 28.5391 5.13208 28.5991 5.15608 28.6231C5.30008 28.8151 5.5401 28.9231 5.7681 28.7791C5.9601 28.6711 6.08007 28.3591 5.92407 28.1671L5.93608 28.1551Z" fill="black"/>
  <path d="M15.0932 31.5997C15.0932 31.5997 15.0692 31.6957 15.0452 31.7557C15.0212 31.8397 15.0932 31.6717 15.0452 31.7557C15.0332 31.7797 15.0212 31.8037 15.0092 31.8277C14.9972 31.8517 14.9852 31.8757 14.9732 31.8877C14.9372 31.9597 15.0452 31.8157 14.9732 31.8877C14.9372 31.9237 14.9012 31.9597 14.8652 31.9957C14.8652 31.9957 14.7692 32.0677 14.8292 32.0197C14.8892 31.9717 14.8052 32.0317 14.7932 32.0437C14.7452 32.0797 14.6972 32.1037 14.6492 32.1277C14.5772 32.1637 14.6012 32.1517 14.6492 32.1277C14.6132 32.1397 14.5892 32.1517 14.5532 32.1637C14.4812 32.1877 14.4212 32.2117 14.3492 32.2237C14.2772 32.2477 14.1932 32.2597 14.1212 32.2717C14.1212 32.2717 14.0012 32.2837 14.0612 32.2717C14.1092 32.2717 13.9892 32.2717 13.9772 32.2717C13.7972 32.2837 13.6172 32.2957 13.4372 32.2837C12.9812 32.2837 12.5492 32.2117 12.1052 32.1157C11.8652 32.0677 11.6252 32.1877 11.5532 32.4277C11.4932 32.6437 11.6252 32.9317 11.8652 32.9797C12.7652 33.1597 13.7612 33.2917 14.6612 33.0397C15.2612 32.8717 15.8132 32.4637 15.9572 31.8157C16.0052 31.5757 15.8852 31.3237 15.6452 31.2637C15.4172 31.2037 15.1412 31.3357 15.0932 31.5757V31.5997Z" fill="black"/>
  <path d="M14.7441 33.3042C14.6841 33.4122 14.6241 33.5082 14.5521 33.6162C14.6241 33.5202 14.5161 33.6642 14.4921 33.6882C14.4561 33.7242 14.4201 33.7722 14.3721 33.8082C14.3481 33.8322 14.3241 33.8442 14.3001 33.8682C14.2761 33.8922 14.3721 33.8202 14.3001 33.8682C14.2521 33.9042 14.2041 33.9282 14.1561 33.9642C14.0961 34.0002 14.0361 34.0242 13.9761 34.0602C13.8801 34.1082 14.0601 34.0362 13.9521 34.0602C13.9161 34.0602 13.8801 34.0842 13.8561 34.0962C13.7121 34.1442 13.5681 34.1682 13.4241 34.1922C13.3881 34.1922 13.4001 34.1922 13.4361 34.1922C13.4121 34.1922 13.3881 34.1922 13.3761 34.1922C13.3401 34.1922 13.3041 34.1922 13.2681 34.1922C13.1721 34.1922 13.0761 34.1922 12.9921 34.1922C12.5481 34.1922 12.1161 34.1322 11.6841 34.0482C11.4441 34.0002 11.2041 34.1202 11.1321 34.3602C11.0721 34.5762 11.2041 34.8642 11.4441 34.9122C12.3081 35.0802 13.2801 35.2122 14.1441 34.9122C14.7561 34.7082 15.2361 34.2882 15.5481 33.7242C15.6681 33.5082 15.5961 33.2322 15.3921 33.1122C15.1881 32.9922 14.8881 33.0642 14.7801 33.2682L14.7441 33.3042Z" fill="black"/>
  <path d="M12.488 36.5547C14.3 37.2387 16.316 37.0707 18.128 36.4587C19.556 35.9667 20.816 35.1147 22.112 34.3467C22.616 34.0587 22.16 33.2787 21.656 33.5667C20.468 34.2627 19.304 35.0787 17.996 35.5467C16.292 36.1467 14.444 36.3267 12.728 35.6907C12.188 35.4867 11.948 36.3507 12.488 36.5547Z" fill="black"/>
  <path d="M20.492 29.4033C20.084 29.4993 19.7 29.6313 19.316 29.7993L19.856 29.8713C18.992 28.9113 18.14 27.9633 17.276 27.0033C16.844 26.5233 16.412 25.9473 15.692 25.9833C14.492 26.0313 14.264 27.5913 14.552 28.4793C14.756 29.1153 15.02 29.7273 15.248 30.3513L15.452 29.8473C14.444 30.3153 12.896 30.4473 11.756 29.9553C11.228 29.7273 10.772 30.5073 11.3 30.7353C12.752 31.3713 14.468 31.2993 15.908 30.6273C16.076 30.5553 16.184 30.2913 16.112 30.1233C15.884 29.4993 15.62 28.8873 15.416 28.2633C15.308 27.9513 15.176 26.8593 15.776 26.8953C16.016 26.9073 16.22 27.2073 16.376 27.3753L19.196 30.5193C19.34 30.6753 19.568 30.6753 19.736 30.5913C20.048 30.4473 20.372 30.3513 20.696 30.2793C21.26 30.1473 21.02 29.2833 20.456 29.4153L20.492 29.4033Z" fill="black"/>
  <path d="M20.9854 30.1481C21.3574 29.8241 21.6934 29.5721 22.1614 29.3081C22.2814 29.2361 22.4374 29.1641 22.5334 29.1281C22.6054 29.1041 22.6894 29.0801 22.7614 29.0561C22.7854 29.0561 22.8214 29.0441 22.8454 29.0441C22.7494 29.0441 22.8934 29.0441 22.9174 29.0441C23.0014 29.0441 22.8094 29.0321 22.9294 29.0441C22.9534 29.0441 22.9774 29.0561 23.0014 29.0681C22.9054 29.0441 23.0134 29.1041 22.9654 29.0561C22.9894 29.0801 23.0253 29.1041 23.0493 29.1281C23.2053 29.2601 23.3614 29.4041 23.5174 29.5481C23.8414 29.8721 24.1534 30.2321 24.3694 30.6401C24.4654 30.8081 24.5374 30.9881 24.5614 31.1801C24.5614 31.2521 24.5734 31.3241 24.5614 31.3961C24.5614 31.4201 24.4894 31.6121 24.5254 31.5401C24.4054 31.7921 24.2014 31.9721 23.9614 32.1761C23.6854 32.4041 23.3854 32.6081 23.0734 32.7881C22.6054 33.0761 22.1254 33.3401 21.6214 33.5801L22.2934 33.9641C22.2934 33.3521 22.2214 32.7401 22.1254 32.1401C21.9694 31.2281 21.6814 30.1601 20.9614 29.5241C20.5294 29.1401 19.8814 29.7761 20.3254 30.1601C20.9374 30.6881 21.1414 31.6361 21.2734 32.4401C21.3454 32.9201 21.4053 33.4601 21.4053 33.9761C21.4053 34.3361 21.7773 34.5041 22.0773 34.3601C22.5693 34.1201 23.0614 33.8561 23.5294 33.5681C24.1894 33.1601 25.0173 32.6441 25.3413 31.9001C25.7733 30.9041 24.9814 29.8121 24.3334 29.1161C24.0454 28.8041 23.6734 28.3841 23.2654 28.2281C22.8574 28.0721 22.4493 28.2041 22.0773 28.3601C21.4413 28.6361 20.8534 29.0681 20.3374 29.5361C19.9054 29.9201 20.5414 30.5561 20.9734 30.1721L20.9854 30.1481Z" fill="black"/>
</svg>
