<svg width="32" height="32" viewBox="0 0 32 32" fill="none" xmlns="http://www.w3.org/2000/svg">
<path d="M24.6697 9.26818L21.5153 5.06229C20.6658 3.92959 19.0794 3.65785 17.9013 4.44323L10.5703 9.33055" stroke="#06AD5D" stroke-width="1.5" stroke-linecap="round" stroke-linejoin="round"/>
<path fill-rule="evenodd" clip-rule="evenodd" d="M24.6707 15.333H28.0054C28.7421 15.333 29.3393 15.9302 29.3393 16.6669V20.6686C29.3393 21.4052 28.7421 22.0025 28.0054 22.0025H24.6707C22.8289 22.0025 21.3359 20.5094 21.3359 18.6677V18.6677C21.3359 16.826 22.8289 15.333 24.6707 15.333V15.333Z" stroke="#06AD5D" stroke-width="1.5" stroke-linecap="round" stroke-linejoin="round"/>
<path d="M28.0022 15.3331V12.6653C28.0022 10.8236 26.5092 9.33057 24.6675 9.33057H7.32691C5.48519 9.33057 3.99219 10.8236 3.99219 12.6653V24.6703C3.99219 26.512 5.48519 28.005 7.32691 28.005H24.6675C26.5092 28.005 28.0022 26.512 28.0022 24.6703V22.0025" stroke="#06AD5D" stroke-width="1.5" stroke-linecap="round" stroke-linejoin="round"/>
</svg>
