<svg width="165" height="165" viewBox="0 0 165 165" fill="none" xmlns="http://www.w3.org/2000/svg">
<path d="M134.353 48.752C143.522 52.8345 147.646 63.5772 143.563 72.7465L121.556 122.177C119.223 127.416 113.084 129.773 107.845 127.44L107.887 127.459L131.504 74.4258C134.593 67.4882 131.703 59.4042 125.052 55.9506L124.268 55.573L71.2308 31.9648C73.5779 26.7551 79.6974 24.4179 84.9228 26.7444L134.353 48.752ZM114.182 62.394L57.6369 37.2184C52.3973 34.8856 46.2586 37.242 43.9258 42.4816L18.7502 99.027C16.4173 104.267 18.7738 110.405 24.0134 112.738L80.5588 137.914C85.7984 140.247 91.9371 137.89 94.2699 132.651L119.446 76.1052C121.778 70.8656 119.422 64.7269 114.182 62.394ZM52.3111 87.1617L57.1541 103.504L79.2121 92.0693L85.8422 119.375C86.1322 120.57 85.3991 121.773 84.2048 122.063C83.7268 122.179 83.2239 122.133 82.7745 121.933L34.5004 100.44C33.3777 99.9405 32.8727 98.6251 33.3726 97.5023C33.5781 97.0407 33.9347 96.6628 34.3835 96.4307L52.3111 87.1617Z" fill="#FFE6AE"/>
</svg>
