<svg width="112" height="108" viewBox="0 0 112 108" fill="none" xmlns="http://www.w3.org/2000/svg">
<path d="M93.4823 16.3065C101.022 18.1864 105.61 25.8226 103.731 33.3624L93.5965 74.0081C92.5222 78.3166 88.1587 80.9384 83.8502 79.8642L83.8852 79.8729L94.7622 36.2639C96.1846 30.5592 92.8943 24.7843 87.3586 23.0454L86.71 22.8629L43.0993 11.9933C44.1884 7.70577 48.5399 5.10109 52.8367 6.17239L93.4823 16.3065ZM79.9377 29.4193L33.4412 17.8264C29.1327 16.7521 24.7692 19.374 23.6949 23.6825L12.102 70.1791C11.0278 74.4875 13.6497 78.8511 17.9582 79.9253L64.4547 91.5182C68.7632 92.5924 73.1267 89.9705 74.201 85.6621L85.7939 39.1655C86.8681 34.857 84.2462 30.4935 79.9377 29.4193ZM36.0948 56.6207L41.9843 68.4296L57.2648 56.7459L65.9907 76.6736C66.3724 77.5453 65.9752 78.5612 65.1036 78.9429C64.7548 79.0956 64.3652 79.1285 63.9957 79.0364L24.3006 69.1393C23.3773 68.9091 22.8155 67.974 23.0457 67.0508C23.1403 66.6712 23.3613 66.3351 23.6724 66.0978L36.0948 56.6207Z" fill="#FFE6AE"/>
</svg>
