<svg width="20" height="20" viewBox="0 0 20 20" fill="none" xmlns="http://www.w3.org/2000/svg">
  <g clip-path="url(#clip0_6383_52120)">
    <path d="M14.8197 13.6592L18.3337 17.1724L17.1727 18.3333L13.6595 14.8193C12.3523 15.8672 10.7264 16.4372 9.05106 16.4348C4.97506 16.4348 1.66699 13.1267 1.66699 9.0507C1.66699 4.97469 4.97506 1.66663 9.05106 1.66663C13.1271 1.66663 16.4351 4.97469 16.4351 9.0507C16.4375 10.7261 15.8676 12.352 14.8197 13.6592ZM13.1738 13.0504C14.2151 11.9796 14.7966 10.5443 14.7942 9.0507C14.7942 5.87719 12.2238 3.30753 9.05106 3.30753C5.87755 3.30753 3.3079 5.87719 3.3079 9.0507C3.3079 12.2234 5.87755 14.7939 9.05106 14.7939C10.5446 14.7962 11.98 14.2147 13.0508 13.1735L13.1738 13.0504Z" fill="#CCCCCC"/>
  </g>
  <defs>
    <clipPath id="clip0_6383_52120">
      <rect width="20" height="20" fill="white"/>
    </clipPath>
  </defs>
</svg>
