<svg width="39" height="28" viewBox="0 0 39 28" fill="none" xmlns="http://www.w3.org/2000/svg">
  <path d="M20.079 5.66293C19.999 6.19293 20.2691 6.69293 20.6791 7.01293C20.9991 7.27293 21.3591 7.35293 21.7591 7.39293C22.4391 7.45293 23.3991 7.38293 23.8391 6.78293C24.3191 6.13293 23.7691 5.33293 23.3191 4.84293C22.6391 4.09293 21.7091 3.54293 20.739 3.26293C20.189 3.10293 19.6091 3.02293 19.0391 3.06293C18.4691 3.10293 17.8291 3.19293 17.4291 3.63293C16.8491 4.25293 16.9891 5.22293 17.2891 5.94293C17.9691 7.57293 19.579 8.94293 21.269 9.43293C22.129 9.68293 23.3191 9.72293 23.9791 9.00293C24.6991 8.22293 24.509 6.94293 23.609 6.38293C23.199 6.13293 22.8191 6.77293 23.2291 7.03293C23.7491 7.35293 23.8291 8.13293 23.3691 8.54293C22.9291 8.93293 22.179 8.88293 21.659 8.76293C20.339 8.45293 19.1091 7.50293 18.3691 6.38293C18.0491 5.90293 17.7791 5.35293 17.7791 4.76293C17.7791 4.44293 17.8791 4.15293 18.1791 3.99293C18.5591 3.79293 19.089 3.79293 19.519 3.81293C20.379 3.85293 21.2091 4.17293 21.9291 4.64293C22.4291 4.97293 22.9991 5.44293 23.2291 6.01293C23.2991 6.19293 23.299 6.32293 23.159 6.43293C22.939 6.59293 22.6191 6.64293 22.3491 6.66293C22.0691 6.68293 21.769 6.68293 21.499 6.61293C21.229 6.54293 20.7591 6.21293 20.8191 5.87293C20.8891 5.40293 20.1691 5.19293 20.0991 5.67293L20.079 5.66293Z" fill="black"/>
  <path d="M9.09 2.91369C8.96 3.23369 8.41001 3.29369 8.13001 3.22369C7.82001 3.14369 7.53 2.96369 7.28 2.78369C7.1 2.65369 6.84 2.45369 6.77 2.22369C6.7 1.99369 6.9 1.85369 7.08 1.75369C8.22 1.08369 9.9 1.17369 11.06 1.70369C11.68 1.98369 12.7 2.55369 12.34 3.36369C12.12 3.84369 11.68 4.18369 11.24 4.44369C10.14 5.08369 8.71 5.34369 7.45 5.13369C6.83 5.03369 6.18 4.80369 5.76 4.31369C5.25 3.72369 5.61 2.75369 6.43 2.72369C6.91 2.70369 6.91 1.95369 6.43 1.97369C5.48 2.00369 4.7 2.84369 4.77 3.79369C4.83 4.68369 5.62 5.29369 6.39 5.60369C7.98 6.24369 9.98 5.95369 11.47 5.17369C12.14 4.82369 12.77 4.30369 13.07 3.58369C13.53 2.45369 12.56 1.60369 11.64 1.13369C10.72 0.663688 9.66 0.473689 8.64 0.563689C7.89 0.633689 7.02 0.803686 6.43 1.30369C5.54 2.06369 6.32 3.03369 7.06 3.51369C7.44 3.76369 7.91 3.99369 8.37 4.00369C8.98 4.00369 9.6 3.68369 9.84 3.11369C10.02 2.66369 9.3 2.47369 9.12 2.91369H9.09Z" fill="black"/>
  <path d="M17.659 14.6635C17.109 15.2435 16.569 15.8335 16.019 16.4135L15.789 16.6535C15.659 16.7935 15.639 17.0435 15.789 17.1835C15.939 17.3235 16.179 17.3335 16.319 17.1835C16.869 16.6035 17.409 16.0135 17.959 15.4335L18.189 15.1935C18.319 15.0535 18.339 14.8035 18.189 14.6635C18.039 14.5235 17.799 14.5135 17.659 14.6635Z" fill="black"/>
  <path d="M19.3201 12.9629C20.1901 12.6829 21.0901 12.2229 21.6701 11.4929C21.7201 11.4329 21.7801 11.3629 21.8201 11.2929C22.0401 10.9329 21.5201 10.5229 21.2301 10.8429C20.6701 11.4429 20.1201 12.0329 19.5601 12.6329L19.3201 12.8929C19.1901 13.0329 19.1701 13.2829 19.3201 13.4229C19.4701 13.5629 19.7101 13.5729 19.8501 13.4229C20.4101 12.8229 20.9601 12.2329 21.5201 11.6329L21.7601 11.3729L21.1701 10.9229C21.1701 10.9229 21.1501 10.9529 21.1401 10.9629C21.1301 10.9829 21.1201 10.9929 21.1001 11.0129C21.0701 11.0529 21.1701 10.9229 21.1301 10.9729C21.1301 10.9829 21.1101 10.9929 21.1001 11.0129C20.9901 11.1429 20.8601 11.2729 20.7301 11.3829C20.7201 11.3929 20.5901 11.5029 20.5901 11.5029C20.6301 11.4729 20.6401 11.4629 20.6101 11.4929C20.6001 11.5029 20.5801 11.5129 20.5701 11.5229C20.5401 11.5429 20.5101 11.5629 20.4901 11.5829C20.3701 11.6629 20.2501 11.7429 20.1201 11.8129C19.9701 11.9029 19.8101 11.9829 19.6401 12.0529C19.6201 12.0529 19.6001 12.0729 19.5701 12.0829C19.6001 12.0729 19.6001 12.0729 19.5601 12.0829C19.5101 12.1029 19.4701 12.1229 19.4201 12.1429C19.3201 12.1829 19.2201 12.2129 19.1201 12.2529C18.9301 12.3129 18.7901 12.5129 18.8601 12.7129C18.9201 12.9029 19.1201 13.0429 19.3201 12.9729V12.9629Z" fill="black"/>
  <path d="M8.64996 11.2928C9.88996 11.9428 11.25 12.4228 12.61 12.7828C13.97 13.1428 15.4 13.3728 16.82 13.3428C17.3 13.3328 17.3 12.5828 16.82 12.5928C15.46 12.6228 14.12 12.4028 12.81 12.0628C11.5 11.7228 10.22 11.2728 9.02996 10.6528C8.59996 10.4328 8.21996 11.0728 8.64996 11.3028V11.2928Z" fill="black"/>
  <path d="M6.66016 9.55339C6.51016 8.69339 6.36015 7.83339 6.21015 6.97339L6.15015 6.60339C6.12015 6.42339 5.91015 6.31339 5.74015 6.33339C5.56015 6.36339 5.41016 6.51339 5.41016 6.70339C5.41016 6.99339 5.49015 7.29339 5.58015 7.57339C5.81015 8.28339 6.19016 8.91339 6.66016 9.49339C6.79016 9.65339 7.06016 9.62339 7.19016 9.49339C7.34016 9.34339 7.32016 9.12339 7.19016 8.96339C6.96016 8.68339 6.76015 8.37339 6.59015 8.05339C6.45015 7.79339 6.38015 7.62339 6.29015 7.34339C6.24015 7.17339 6.20015 6.99339 6.17015 6.81339C6.17015 6.76339 6.18015 6.92339 6.17015 6.81339C6.17015 6.79339 6.17015 6.76339 6.17015 6.74339C6.17015 6.72339 6.17015 6.71339 6.17015 6.69339L5.43015 6.79339C5.58015 7.65339 5.73015 8.51339 5.88015 9.37339L5.94016 9.74339C5.97016 9.94339 6.22015 10.0534 6.40015 10.0034C6.61015 9.94339 6.70016 9.74339 6.66016 9.54339V9.55339Z" fill="black"/>
  <path d="M7.80912 16.1833C7.58912 14.9333 7.37911 13.6733 7.15911 12.4233C7.12911 12.2433 7.09911 12.0633 7.06911 11.8833C7.03911 11.6833 6.78911 11.5733 6.60911 11.6233C6.39911 11.6833 6.30911 11.8833 6.34911 12.0833C6.56911 13.3333 6.77911 14.5933 6.99911 15.8433C7.02911 16.0233 7.05911 16.2033 7.08911 16.3833C7.11911 16.5833 7.36911 16.6933 7.54911 16.6433C7.75911 16.5833 7.84912 16.3833 7.80912 16.1833Z" fill="black"/>
  <path d="M19.699 8.69322C19.699 8.69322 19.719 8.72322 19.719 8.74322C19.749 8.81322 19.719 8.74322 19.719 8.71322C19.719 8.74322 19.739 8.76323 19.749 8.79323C19.779 8.86323 19.799 8.93322 19.819 9.01322C19.829 9.05322 19.839 9.09323 19.849 9.13323C19.849 9.15323 19.849 9.18323 19.859 9.20323C19.859 9.31323 19.869 9.41322 19.859 9.52322C19.859 9.55322 19.859 9.58323 19.859 9.60323C19.859 9.69323 19.869 9.54323 19.859 9.60323C19.849 9.66323 19.839 9.73322 19.819 9.79322C19.799 9.85322 19.779 9.91322 19.759 9.97322C19.729 10.0632 19.779 9.94322 19.749 10.0032C19.729 10.0332 19.719 10.0732 19.699 10.1032C19.669 10.1632 19.629 10.2232 19.589 10.2832C19.569 10.3232 19.539 10.3532 19.509 10.3932C19.549 10.3332 19.469 10.4332 19.459 10.4532C19.149 10.8032 18.779 11.0332 18.339 11.2332C18.159 11.3232 18.109 11.5832 18.209 11.7432C18.319 11.9332 18.539 11.9632 18.719 11.8732C19.489 11.5132 20.209 10.9532 20.499 10.1232C20.669 9.65322 20.649 9.11323 20.499 8.63323C20.459 8.51323 20.419 8.39322 20.359 8.28322C20.129 7.86322 19.479 8.23322 19.709 8.66322L19.699 8.69322Z" fill="black"/>
  <path d="M9.16002 5.11296C8.51002 5.26296 7.85002 5.68296 7.74002 6.39296C7.63002 7.10296 7.96002 7.74296 8.42002 8.24296C8.73002 8.58296 9.12002 8.85296 9.53002 9.06296C9.96002 9.28296 10.34 8.63296 9.91002 8.41296C9.52002 8.21296 9.20002 7.98296 8.92002 7.66296C8.71002 7.43296 8.56002 7.16296 8.49002 6.86296C8.49002 6.84296 8.47001 6.73296 8.48001 6.82296C8.48001 6.78296 8.48001 6.74296 8.48001 6.70296C8.48001 6.67296 8.48001 6.64296 8.48001 6.61296C8.48001 6.59296 8.48001 6.57296 8.48001 6.55296C8.48001 6.60296 8.48001 6.60296 8.48001 6.56296C8.50001 6.49296 8.51001 6.43296 8.54001 6.36296C8.51001 6.44296 8.54002 6.36296 8.55002 6.34296C8.57002 6.31296 8.59002 6.27296 8.61002 6.24296C8.65002 6.18296 8.57002 6.27296 8.64002 6.21296C8.67002 6.18296 8.69002 6.16296 8.72002 6.13296C8.74002 6.12296 8.75002 6.10296 8.77002 6.09296C8.74002 6.11296 8.74002 6.11296 8.77002 6.09296C8.80002 6.07296 8.83002 6.05296 8.86002 6.03296C9.04002 5.92296 9.16002 5.88296 9.38002 5.83296C9.85002 5.72296 9.65001 5.00296 9.18001 5.11296H9.16002Z" fill="black"/>
  <path d="M4.80908 4.07363C4.85908 4.79363 4.99909 5.53363 5.21909 6.22363C5.56909 7.36363 6.19908 8.60363 7.34908 9.10363C8.13908 9.44363 9.00909 9.38363 9.80909 9.10363C10.2591 8.94363 10.0691 8.21363 9.60908 8.38363C8.96908 8.61363 8.36909 8.69363 7.75909 8.47363C7.65909 8.44363 7.70908 8.46363 7.62908 8.42363C7.57908 8.39363 7.51909 8.37364 7.46909 8.34364C7.40909 8.30364 7.34909 8.26363 7.28909 8.22363C7.21909 8.17363 7.24908 8.19363 7.16908 8.12363C7.06908 8.03363 6.96908 7.94363 6.88908 7.84364C6.76908 7.71363 6.74909 7.68363 6.64909 7.54363C6.07909 6.71363 5.80908 5.73363 5.63908 4.71363C5.63908 4.66363 5.61909 4.61363 5.61909 4.56363C5.61909 4.54363 5.61909 4.51363 5.61909 4.49363C5.59909 4.38363 5.61909 4.55363 5.61909 4.49363C5.61909 4.42363 5.59908 4.35363 5.59908 4.28363C5.59908 4.21363 5.58909 4.15363 5.57909 4.08363C5.54909 3.60363 4.79909 3.60363 4.82909 4.08363L4.80908 4.07363Z" fill="black"/>
  <path d="M23.23 8.74316C22.9 9.24316 22.51 9.69316 22.04 10.1532C21.32 10.8532 20.38 11.5532 19.33 11.5032C18.61 11.4732 18.03 11.0132 17.57 10.4832C17.25 10.1232 16.72 10.6532 17.04 11.0132C17.52 11.5632 18.14 12.0432 18.87 12.1932C19.5 12.3232 20.14 12.2232 20.73 11.9632C21.77 11.5232 22.64 10.6932 23.34 9.82316C23.52 9.59316 23.71 9.36316 23.87 9.12316C24.14 8.72316 23.49 8.34316 23.22 8.74316H23.23Z" fill="black"/>
  <path d="M14.5389 6.27329C14.3089 6.53329 13.8389 6.51329 13.5589 6.35329C13.3089 6.21329 13.0889 5.96329 12.9089 5.73329C12.7489 5.52329 12.5489 5.23329 12.5289 4.95329C12.5089 4.70329 12.7089 4.62329 12.9189 4.57329C14.0789 4.28329 15.5289 4.83329 16.4389 5.53329C16.9589 5.93329 18.0189 6.93329 17.5389 7.64329C17.2789 8.03329 16.7789 8.25329 16.3489 8.37329C15.1289 8.71329 13.7089 8.55329 12.5589 8.04329C11.9589 7.78329 11.3689 7.39329 11.0289 6.82329C10.8189 6.48329 10.7089 6.09329 10.9189 5.72329C11.1489 5.32329 11.6089 5.14329 12.0489 5.27329C12.5089 5.41329 12.7089 4.69329 12.2489 4.55329C11.1889 4.22329 10.0389 5.06329 10.0489 6.18329C10.0489 7.02329 10.7089 7.75329 11.3589 8.22329C12.7289 9.20329 14.7089 9.52329 16.3389 9.15329C17.0389 8.99329 17.7489 8.65329 18.1689 8.05329C18.8589 7.05329 17.9289 5.84329 17.1789 5.18329C16.4289 4.52329 15.5689 4.11329 14.6289 3.91329C13.9589 3.76329 13.1689 3.68329 12.5089 3.93329C11.3789 4.35329 11.7989 5.55329 12.3689 6.26329C12.6389 6.60329 12.9889 6.95329 13.3989 7.11329C13.9289 7.31329 14.6789 7.26329 15.0689 6.81329C15.3789 6.45329 14.8489 5.91329 14.5389 6.28329V6.27329Z" fill="black"/>
  <path d="M14.769 8.55347C14.399 8.60347 14.0191 8.70347 13.6691 8.82347C12.9991 9.05347 12.3091 9.38346 11.8891 9.98346C11.6291 10.3535 11.569 10.7835 11.629 11.2235C11.659 11.4235 11.9091 11.5335 12.0891 11.4835C12.2991 11.4235 12.3791 11.2235 12.3491 11.0235C12.3691 11.1235 12.3491 10.9935 12.3491 10.9735C12.3491 10.9335 12.3491 10.8935 12.3491 10.8535C12.3491 10.8235 12.3491 10.7835 12.3491 10.7535C12.3491 10.8635 12.349 10.7435 12.359 10.7035C12.369 10.6635 12.3791 10.6435 12.3891 10.6135C12.3891 10.5935 12.409 10.5735 12.409 10.5535C12.419 10.5035 12.379 10.6135 12.409 10.5735C12.449 10.5035 12.479 10.4335 12.519 10.3735C12.539 10.3435 12.5891 10.2935 12.5291 10.3535C12.5491 10.3235 12.5791 10.2935 12.5991 10.2735C12.6491 10.2135 12.6991 10.1635 12.7591 10.1135C12.7891 10.0835 12.8191 10.0635 12.8491 10.0435C12.7891 10.0935 12.849 10.0435 12.879 10.0235C12.949 9.97346 13.0191 9.93347 13.0891 9.89347C13.2191 9.81347 13.359 9.74347 13.499 9.68347C13.599 9.63347 13.4591 9.69346 13.5391 9.66346C13.5791 9.65346 13.6091 9.63346 13.6491 9.62346C13.7191 9.59346 13.789 9.57347 13.859 9.54347C14.099 9.46347 14.3491 9.39346 14.5891 9.34346C14.7091 9.31346 14.8391 9.29346 14.9591 9.27346C15.1591 9.24346 15.269 8.99346 15.219 8.81346C15.159 8.59346 14.9591 8.52347 14.7591 8.55347H14.769Z" fill="black"/>
  <path d="M17.639 7.46359C17.249 8.96359 17.009 11.2936 15.029 11.4136C13.869 11.4836 12.519 11.0836 11.529 10.4836C10.869 10.0836 10.419 9.49359 10.369 8.71359C10.309 7.69359 10.649 6.67359 10.899 5.69359C11.019 5.22359 10.299 5.02359 10.179 5.49359C9.69899 7.31359 9.00899 9.55359 10.789 10.8936C11.839 11.6836 13.369 12.1236 14.669 12.1636C15.709 12.2036 16.649 11.8236 17.239 10.9536C17.889 9.99359 18.069 8.76359 18.359 7.67359C18.479 7.20359 17.759 7.00359 17.639 7.47359V7.46359Z" fill="black"/>
  <path d="M19.64 15.2628C18.92 15.1028 18.15 14.7128 17.68 14.0928C17.11 13.3428 17.11 12.2428 17.38 11.3828L16.92 11.6428C17.64 11.8028 18.41 12.1928 18.88 12.8128C19.45 13.5628 19.45 14.6628 19.18 15.5228C19.04 15.9828 19.76 16.1828 19.9 15.7228C20.13 14.9628 20.16 14.0628 19.94 13.2928C19.63 12.2528 18.78 11.5628 17.81 11.1528C17.59 11.0628 17.35 10.9728 17.12 10.9228C16.92 10.8828 16.72 10.9828 16.66 11.1828C16.43 11.9428 16.4 12.8428 16.62 13.6128C16.93 14.6528 17.78 15.3428 18.75 15.7528C18.97 15.8428 19.21 15.9328 19.44 15.9828C19.91 16.0828 20.11 15.3628 19.64 15.2628Z" fill="black"/>
  <path d="M5.49002 11.6535C5.57002 11.3835 5.64002 11.2435 5.77002 10.9935C6.00002 10.5535 6.30002 10.1335 6.71002 9.85348C7.51002 9.29348 8.64003 9.35348 9.52003 9.68348L9.26002 9.22348C9.18002 9.49348 9.11002 9.63348 8.98002 9.88348C8.75002 10.3235 8.45002 10.7435 8.04002 11.0235C7.24002 11.5835 6.11003 11.5235 5.23003 11.1935C5.04003 11.1235 4.82002 11.2735 4.77002 11.4535C4.71002 11.6635 4.84002 11.8435 5.03002 11.9135C5.79002 12.2035 6.72002 12.2735 7.51002 12.0735C8.51002 11.8235 9.24003 11.0335 9.69003 10.1335C9.80003 9.90348 9.91002 9.66348 9.98002 9.41348C10.04 9.20348 9.91003 9.02348 9.72003 8.95348C8.96003 8.66348 8.03002 8.59348 7.24002 8.79348C6.24002 9.04348 5.51002 9.83348 5.06002 10.7335C4.95002 10.9635 4.84002 11.2035 4.77002 11.4535C4.64002 11.9135 5.36002 12.1135 5.49002 11.6535Z" fill="black"/>
  <path d="M17.1089 4.98324C16.8789 4.83324 16.7389 4.71324 16.5289 4.50324C16.1589 4.14324 15.8389 3.72324 15.6889 3.22324C15.4189 2.32324 15.7889 1.28324 16.3389 0.553238L15.8289 0.683239C16.0589 0.833239 16.1989 0.953239 16.4089 1.16324C16.7789 1.52324 17.0989 1.94324 17.2489 2.44324C17.5189 3.34324 17.1489 4.38324 16.5989 5.11324C16.4789 5.27324 16.5689 5.53324 16.7289 5.62324C16.9189 5.73324 17.1189 5.65324 17.2389 5.49324C17.8989 4.60324 18.2889 3.33324 17.9589 2.25324C17.6889 1.35324 16.9789 0.553238 16.1889 0.0532382C15.9989 -0.0667618 15.7889 0.0332393 15.6789 0.183239C15.0189 1.07324 14.6289 2.34324 14.9589 3.42324C15.2289 4.32324 15.9389 5.12324 16.7289 5.62324C17.1389 5.88324 17.5189 5.23324 17.1089 4.97324V4.98324Z" fill="black"/>
  <path d="M9.61984 9.31348L8.83984 10.9735C8.83984 10.9735 11.3298 12.1535 12.8898 12.4735C14.4498 12.7935 16.9498 12.8535 16.9498 12.8535L17.0798 11.0535C17.0798 11.0535 15.6498 12.1935 13.2598 11.5635C10.8698 10.9335 9.61984 9.32348 9.61984 9.32348V9.31348Z" fill="black"/>
  <path d="M6.38891 8.06348C6.38891 8.06348 7.92891 9.29348 8.48891 9.16348C9.04891 9.03348 7.40891 9.27348 7.40891 9.27348C7.40891 9.27348 6.46891 8.42348 6.37891 8.06348H6.38891Z" fill="black"/>
  <path d="M20.1099 11.793L20.1199 12.323L19.3999 12.603L18.6799 11.913L20.1099 11.793Z" fill="black"/>
  <path d="M5.53201 17.0034C5.89201 17.0834 6.25201 17.1934 6.59201 17.3434C6.74201 17.4134 6.93201 17.4134 7.04201 17.2834L10.032 13.9534C10.202 13.7634 10.452 13.4234 10.702 13.3634C11.532 13.1934 11.442 14.5034 11.292 14.9634C11.072 15.6334 10.792 16.2934 10.542 16.9534C10.462 17.1534 10.632 17.3434 10.802 17.4134C11.912 17.8534 13.232 17.9434 14.392 17.7134C14.832 17.6234 15.272 17.3334 15.702 17.2934C16.152 17.2434 16.342 17.7534 16.452 18.1134C16.702 18.9634 16.492 20.0234 16.092 20.8134C15.882 21.2234 15.612 21.6134 15.372 22.0034C15.082 22.4834 14.782 22.7334 14.252 22.9834C12.512 23.7634 10.442 23.5534 8.68202 22.9834C7.16202 22.4834 5.82201 21.5534 4.44201 20.7534C4.02201 20.5134 3.64201 21.1534 4.06201 21.4034C5.44201 22.2134 6.79201 23.1334 8.31201 23.6534C10.222 24.3134 12.472 24.5334 14.382 23.7434C14.992 23.4934 15.522 23.1934 15.872 22.6334C16.162 22.1734 16.472 21.7034 16.722 21.2234C17.352 20.0534 17.822 17.3934 16.272 16.6534C15.912 16.4834 15.572 16.5434 15.222 16.6834C14.542 16.9434 13.892 17.1034 13.152 17.1034C12.412 17.1034 11.672 16.9834 11.002 16.7134L11.262 17.1734C11.562 16.3734 12.012 15.5134 12.132 14.6634C12.332 13.1734 10.992 11.9034 9.75201 13.1534C8.61201 14.2934 7.58201 15.5634 6.50201 16.7634L6.95201 16.7034C6.55201 16.5234 6.14201 16.3834 5.71201 16.2834C5.24201 16.1734 5.04201 16.8934 5.51201 17.0034H5.53201Z" fill="black"/>
  <path d="M5.83094 16.3634C5.35094 15.9334 4.81093 15.5334 4.24093 15.2434C3.89093 15.0634 3.48094 14.8934 3.08094 14.9234C2.62094 14.9634 2.28094 15.3234 1.97094 15.6334C1.23094 16.3434 0.320935 17.4234 0.530935 18.5334C0.680935 19.3634 1.60094 19.9534 2.26094 20.3834C2.84094 20.7634 3.46094 21.1034 4.09094 21.4034C4.34094 21.5234 4.65094 21.3834 4.65094 21.0834C4.65094 20.5234 4.70094 19.9534 4.79094 19.4034C4.93094 18.5434 5.15094 17.5034 5.84094 16.9034C6.20094 16.5834 5.67093 16.0534 5.31093 16.3734C4.54093 17.0434 4.24094 18.1734 4.08094 19.1434C3.97094 19.7834 3.90094 20.4334 3.90094 21.0834L4.46094 20.7634C4.02094 20.5534 3.59094 20.3234 3.16094 20.0734C2.55094 19.7134 1.83094 19.3034 1.41094 18.7134C0.92094 18.0334 1.67094 17.0634 2.16094 16.5234C2.40094 16.2634 2.75094 15.8434 3.03094 15.7034C3.10093 15.6734 3.20094 15.6734 3.29094 15.6834C3.45094 15.7134 3.61094 15.7734 3.75094 15.8434C4.31094 16.1134 4.83094 16.4934 5.29094 16.9034C5.65094 17.2234 6.18094 16.6934 5.82094 16.3734L5.83094 16.3634Z" fill="black"/>
  <path d="M16.4309 18.0036C16.4309 18.0036 16.4309 18.0636 16.4309 18.0936C16.4309 18.1936 16.4509 18.0336 16.4309 18.1036C16.4209 18.1536 16.411 18.2036 16.391 18.2536C16.391 18.2736 16.3809 18.2836 16.3709 18.3036C16.3909 18.2536 16.3909 18.2436 16.3809 18.2736C16.3709 18.3036 16.3509 18.3236 16.3409 18.3536C16.3109 18.4036 16.281 18.4436 16.251 18.4836C16.311 18.4036 16.2509 18.4836 16.2409 18.4836C16.2209 18.5036 16.2009 18.5336 16.1709 18.5536C16.1409 18.5736 16.1209 18.6035 16.0909 18.6235C16.0809 18.6335 16.0009 18.6936 16.0709 18.6436C15.9509 18.7336 15.8309 18.8036 15.7009 18.8636C15.5809 18.9236 15.4509 18.9736 15.2709 19.0236C15.0809 19.0836 14.8809 19.1236 14.6809 19.1636C14.2009 19.2436 13.7209 19.2636 13.2309 19.2736C12.7409 19.2836 12.7509 20.0236 13.2309 20.0236C14.2009 20.0236 15.2509 19.9436 16.1309 19.4936C16.7109 19.1936 17.1509 18.6736 17.1609 18.0036C17.1609 17.5236 16.4209 17.5236 16.4109 18.0036H16.4309Z" fill="black"/>
  <path d="M16.4311 19.9136C16.4111 19.9836 16.3911 20.0436 16.3611 20.1036C16.3611 20.1136 16.3211 20.2036 16.3611 20.1236C16.3511 20.1536 16.3311 20.1836 16.3211 20.2136C16.2611 20.3336 16.1911 20.4436 16.1211 20.5436C16.1711 20.4736 16.0711 20.6036 16.0511 20.6236C16.0011 20.6736 15.9511 20.7236 15.9011 20.7736C15.8811 20.7936 15.8511 20.8136 15.8311 20.8336C15.8911 20.7836 15.8211 20.8336 15.8011 20.8536C15.7311 20.8936 15.6711 20.9436 15.6011 20.9836C15.3211 21.1436 15.0311 21.2336 14.6711 21.3036C14.2011 21.4036 13.7111 21.4236 13.2311 21.4236C12.7511 21.4236 12.7511 22.1736 13.2311 22.1736C14.1711 22.1736 15.1911 22.0936 16.0111 21.6036C16.5911 21.2636 16.9811 20.7336 17.1711 20.0936C17.3111 19.6336 16.5911 19.4336 16.4511 19.8936L16.4311 19.9136Z" fill="black"/>
  <path d="M11.669 24.1036C11.729 24.8936 11.789 25.6736 11.859 26.4636L11.889 26.8036L12.169 26.4436C11.689 26.5236 11.199 26.5936 10.719 26.6736L11.189 27.0336C11.169 26.1736 11.149 25.3136 11.129 24.4536V24.0836C11.109 23.6036 10.359 23.6036 10.369 24.0836C10.389 24.9436 10.409 25.8036 10.429 26.6636V27.0336C10.449 27.2936 10.669 27.4336 10.909 27.3936C11.389 27.3136 11.879 27.2436 12.359 27.1636C12.509 27.1436 12.649 26.9536 12.639 26.8036C12.579 26.0136 12.519 25.2336 12.449 24.4436L12.419 24.1036C12.399 23.9036 12.259 23.7236 12.039 23.7236C11.849 23.7236 11.649 23.8936 11.659 24.1036H11.669Z" fill="black"/>
  <path d="M7.45999 23.1436C7.18999 23.5636 6.92 23.9736 6.66 24.3936C6.57 24.5236 6.59999 24.7436 6.71999 24.8436C7.00999 25.1036 7.29 25.3636 7.58 25.6236C7.73 25.7536 7.96999 25.7736 8.10999 25.6236C8.23999 25.4836 8.26999 25.2336 8.10999 25.0936C7.81999 24.8336 7.53999 24.5736 7.24999 24.3136L7.30999 24.7636C7.57999 24.3436 7.84999 23.9336 8.10999 23.5136C8.21999 23.3436 8.14999 23.0936 7.97999 23.0036C7.78999 22.9036 7.57999 22.9636 7.46999 23.1336L7.45999 23.1436Z" fill="black"/>
  <path d="M9.72907 24.0836C9.56907 24.9436 9.39907 25.8036 9.23907 26.6636L9.16907 27.0436L9.62906 26.7836C9.04906 26.6336 8.45906 26.4736 7.87906 26.3236L8.13907 26.7836C8.42907 25.9136 8.71907 25.0436 9.00907 24.1836L9.13907 23.8036C9.28907 23.3436 8.56907 23.1436 8.41907 23.6036C8.12907 24.4736 7.83906 25.3436 7.54906 26.2036L7.41907 26.5836C7.35907 26.7736 7.48907 26.9936 7.67907 27.0436C8.25907 27.1936 8.84907 27.3536 9.42907 27.5036C9.60907 27.5536 9.84907 27.4436 9.88907 27.2436C10.0491 26.3836 10.2191 25.5236 10.3791 24.6636L10.4491 24.2836C10.4891 24.0836 10.3891 23.8836 10.1891 23.8236C10.0091 23.7736 9.76907 23.8836 9.72907 24.0836Z" fill="black"/>
  <path d="M34.8541 1.1464C34.6581 0.9512 34.3421 0.9512 34.1461 1.1464L30.9641 4.3284C30.7691 4.5237 30.7691 4.8403 30.9641 5.0355C31.1601 5.2308 31.4761 5.2308 31.6721 5.0355L34.5001 2.2071L37.3281 5.0355C37.5241 5.2308 37.8401 5.2308 38.0361 5.0355C38.2311 4.8403 38.2311 4.5237 38.0361 4.3284L34.8541 1.1464ZM34.1461 27.3536C34.3421 27.5488 34.6581 27.5488 34.8541 27.3536L38.0361 24.1716C38.2311 23.9763 38.2311 23.6597 38.0361 23.4645C37.8401 23.2692 37.5241 23.2692 37.3281 23.4645L34.5001 26.2929L31.6721 23.4645C31.4761 23.2692 31.1601 23.2692 30.9641 23.4645C30.7691 23.6597 30.7691 23.9763 30.9641 24.1716L34.1461 27.3536ZM34.0001 1.5V27H35.0001V1.5H34.0001Z" fill="black"/>
</svg>
