<svg width="32" height="32" viewBox="0 0 32 32" fill="none" xmlns="http://www.w3.org/2000/svg">
<path fill-rule="evenodd" clip-rule="evenodd" d="M3.99219 27.3794V26.8378C3.99658 25.297 5.24455 24.0491 6.78535 24.0447H11.2032C12.744 24.0491 13.992 25.297 13.9964 26.8378V27.3794C13.9964 27.7477 13.6978 28.0463 13.3294 28.0463H4.65913C4.29079 28.0463 3.99219 27.7477 3.99219 27.3794Z" stroke="#06AD5D" stroke-width="1.5" stroke-linecap="round" stroke-linejoin="round"/>
<path fill-rule="evenodd" clip-rule="evenodd" d="M6.32815 18.0315C6.33406 16.5595 7.53105 15.3705 9.00303 15.3744C10.475 15.3783 11.6657 16.5737 11.6637 18.0457C11.6617 19.5177 10.4679 20.71 8.99595 20.71C8.28655 20.71 7.60637 20.4274 7.10576 19.9248C6.60515 19.4222 6.32533 18.7409 6.32815 18.0315Z" stroke="#06AD5D" stroke-width="1.5" stroke-linecap="round" stroke-linejoin="round"/>
<path fill-rule="evenodd" clip-rule="evenodd" d="M26.6709 14.7074C28.1443 14.7074 29.3387 13.513 29.3387 12.0396V6.70403C29.3387 5.23066 28.1443 4.03625 26.6709 4.03625H15.9998C14.5264 4.03625 13.332 5.23066 13.332 6.70403V12.0396C13.332 13.513 14.5264 14.7074 15.9998 14.7074H17.3337V18.709L22.6693 14.7074H26.6709Z" stroke="#06AD5D" stroke-width="1.5" stroke-linecap="round" stroke-linejoin="round"/>
<path d="M24.7621 9.33046C24.7878 9.30532 24.8289 9.3056 24.8542 9.33109C24.8796 9.35658 24.8796 9.39772 24.8542 9.42321C24.8289 9.4487 24.7878 9.44898 24.7621 9.42384C24.7492 9.41173 24.7419 9.39484 24.7419 9.37715C24.7419 9.35946 24.7492 9.34257 24.7621 9.33046" stroke="#06AD5D" stroke-width="1.5" stroke-linecap="round" stroke-linejoin="round"/>
<path d="M21.2895 9.33046C21.3151 9.30532 21.3563 9.3056 21.3816 9.33109C21.4069 9.35658 21.4069 9.39772 21.3816 9.42321C21.3563 9.4487 21.3151 9.44898 21.2895 9.42384C21.2766 9.41173 21.2693 9.39484 21.2693 9.37715C21.2693 9.35946 21.2766 9.34257 21.2895 9.33046" stroke="#06AD5D" stroke-width="1.5" stroke-linecap="round" stroke-linejoin="round"/>
<path d="M17.8129 9.33046C17.8386 9.30532 17.8797 9.3056 17.905 9.33109C17.9303 9.35658 17.9303 9.39772 17.905 9.42321C17.8797 9.4487 17.8386 9.44898 17.8129 9.42384C17.8 9.41173 17.7927 9.39484 17.7927 9.37715C17.7927 9.35946 17.8 9.34257 17.8129 9.33046" stroke="#06AD5D" stroke-width="1.5" stroke-linecap="round" stroke-linejoin="round"/>
</svg>
