<svg width="24" height="24" viewBox="0 0 24 24" fill="none" xmlns="http://www.w3.org/2000/svg">
<path d="M19.9491 12.6567C19.8378 12.223 19.5565 11.8567 19.1572 11.6254L15.3582 9.42364C16.3814 8.53784 17.0253 7.25802 17.0253 5.83688C17.0253 5.68859 17.0179 5.54198 17.0042 5.39705C17.7678 5.00002 18.2469 4.24102 18.2469 3.39209C18.2469 2.13233 17.1757 1.10749 15.859 1.10749C15.3197 1.10749 14.8084 1.27794 14.3904 1.59123C13.671 1.21431 12.8458 0.999634 11.9693 0.999634C11.0927 0.999634 10.2676 1.21431 9.54817 1.59131C9.13054 1.27798 8.61912 1.10757 8.07942 1.10757C6.76269 1.10757 5.69149 2.13246 5.69149 3.39217C5.69149 4.24123 6.1707 5.00019 6.93434 5.39722C6.92064 5.54211 6.91323 5.68868 6.91323 5.83692C6.91323 7.26954 7.56778 8.55847 8.60547 9.445L4.84324 11.6254C4.44388 11.8567 4.1626 12.223 4.05126 12.6567C3.93997 13.0905 4.01192 13.5399 4.25395 13.9219C4.58217 14.4401 5.15983 14.7269 5.75141 14.7268C6.05955 14.7268 6.37151 14.649 6.65373 14.4855L7.58934 13.9433C7.35198 14.8999 7.46201 15.8824 7.88895 16.751L7.26997 21.1215C7.14071 22.0251 7.80357 22.8608 8.74883 22.9846C8.82689 22.9946 8.90589 22.9996 8.98363 22.9996C9.84221 22.9996 10.5779 22.3854 10.6948 21.5708L11.0437 19.1325C11.3278 19.1873 11.6198 19.2161 11.9166 19.2171C11.9341 19.2171 11.9517 19.2171 11.9692 19.2171C11.9867 19.2171 12.0043 19.2171 12.0218 19.2171C12.3185 19.2161 12.6104 19.1873 12.8945 19.1326L13.2439 21.5709C13.3607 22.3854 14.0961 22.9996 14.9545 22.9996C15.0322 22.9996 15.1112 22.9946 15.1906 22.9845C15.6482 22.9245 16.0539 22.6978 16.333 22.3459C16.6121 21.994 16.7311 21.5591 16.6682 21.1219L16.0477 16.7547C16.4823 15.8726 16.5902 14.8727 16.3388 13.9016L17.3466 14.4856C17.6289 14.6491 17.9407 14.7269 18.2489 14.7269C18.8404 14.7269 19.4182 14.4401 19.7463 13.9219C19.9884 13.5399 20.0604 13.0906 19.9491 12.6567ZM15.859 1.84457C16.7509 1.84457 17.4766 2.53886 17.4766 3.39222C17.4766 3.87841 17.2443 4.32085 16.8601 4.6087C16.576 3.57432 15.9423 2.67408 15.0873 2.03148C15.3214 1.90945 15.5849 1.84457 15.859 1.84457ZM6.46178 3.39222C6.46178 2.53886 7.18747 1.84457 8.07942 1.84457C8.35374 1.84457 8.61728 1.90945 8.85136 2.03148C7.99633 2.67412 7.36258 3.5744 7.07855 4.60883C6.69415 4.32098 6.46178 3.87845 6.46178 3.39222ZM7.68352 5.83692C7.68352 3.57599 9.60611 1.73659 11.9693 1.73659C14.3325 1.73659 16.2551 3.57599 16.2551 5.83692C16.2551 8.09784 14.3325 9.93725 11.9693 9.93725C9.60611 9.93725 7.68352 8.09789 7.68352 5.83692ZM7.85472 12.9279L6.25473 13.8551C5.79389 14.122 5.19194 13.9807 4.91277 13.5399C4.7774 13.3262 4.73711 13.075 4.79936 12.8325C4.86161 12.59 5.01885 12.3852 5.24228 12.2558L8.53024 10.3503L7.85472 12.9279ZM9.93172 21.4706C9.86691 21.9222 9.45938 22.2626 8.98372 22.2626C8.93993 22.2626 8.8952 22.2598 8.85208 22.2543C8.3289 22.1858 7.96152 21.7224 8.03325 21.2209L8.53096 17.7064C9.01412 18.2533 9.62012 18.6668 10.2964 18.9217L9.93172 21.4706ZM12.0192 18.4801C11.9859 18.4802 11.9527 18.4802 11.9194 18.4801C10.7792 18.4763 9.72279 17.9789 9.02104 17.1153C8.31485 16.2463 8.07017 15.1357 8.34992 14.0686L9.4138 10.0093C10.1641 10.4316 11.0376 10.6742 11.9693 10.6742C12.901 10.6742 13.7746 10.4316 14.525 10.0093L15.5888 14.0686C15.8685 15.1358 15.6239 16.2463 14.9176 17.1153C14.2159 17.9789 13.1595 18.4763 12.0192 18.4801ZM15.7195 21.9004C15.5648 22.0953 15.3399 22.221 15.0875 22.2541C15.0432 22.2598 14.9984 22.2626 14.9546 22.2626C14.4793 22.2626 14.072 21.9222 14.0072 21.4707L13.642 18.9217C14.3176 18.6672 14.9231 18.2544 15.406 17.7082L15.9052 21.2216C15.9401 21.4643 15.8741 21.7054 15.7195 21.9004ZM19.0876 13.54C18.8085 13.9807 18.2065 14.1221 17.7457 13.8552L16.073 12.8858L15.3975 10.3082L18.7582 12.2558C18.9815 12.3852 19.1388 12.59 19.201 12.8326C19.2633 13.075 19.223 13.3263 19.0876 13.54Z" fill="#1F2226" stroke="#1F2226" stroke-width="0.4"/>
</svg>
