<svg width="20" height="20" viewBox="0 0 20 20" fill="none" xmlns="http://www.w3.org/2000/svg">
<path d="M16.6243 10.5473C16.5315 10.1858 16.2971 9.88053 15.9643 9.68778L12.7985 7.85302C13.6512 7.11485 14.1878 6.04833 14.1878 4.86404C14.1878 4.74047 14.1816 4.6183 14.1702 4.49752C14.8065 4.16666 15.2057 3.53416 15.2057 2.82672C15.2057 1.77692 14.313 0.922884 13.2158 0.922884C12.7664 0.922884 12.3403 1.06493 11.992 1.326C11.3925 1.0119 10.7049 0.833008 9.97441 0.833008C9.24395 0.833008 8.55635 1.0119 7.95681 1.32607C7.60878 1.06497 7.1826 0.922956 6.73285 0.922956C5.63557 0.922956 4.74291 1.77703 4.74291 2.82679C4.74291 3.53434 5.14225 4.1668 5.77862 4.49766C5.7672 4.6184 5.76103 4.74054 5.76103 4.86408C5.76103 6.05793 6.30648 7.13204 7.17123 7.87081L4.03604 9.68778C3.70324 9.88053 3.46883 10.1858 3.37605 10.5473C3.28331 10.9088 3.34327 11.2832 3.54496 11.6015C3.81847 12.0334 4.29986 12.2724 4.79284 12.2723C5.04962 12.2723 5.30959 12.2075 5.54478 12.0712L6.32445 11.6194C6.12665 12.4165 6.21834 13.2353 6.57412 13.9592L6.05831 17.6012C5.95059 18.3542 6.50297 19.0507 7.29069 19.1538C7.35574 19.1621 7.42157 19.1663 7.48636 19.1663C8.20184 19.1663 8.81489 18.6545 8.91231 17.9756L9.20304 15.9438C9.4398 15.9894 9.68315 16.0134 9.93047 16.0142C9.9451 16.0142 9.95973 16.0143 9.97433 16.0143C9.98893 16.0143 10.0036 16.0142 10.0182 16.0142C10.2654 16.0134 10.5087 15.9894 10.7454 15.9438L11.0366 17.9757C11.134 18.6545 11.7468 19.1663 12.4621 19.1663C12.5269 19.1663 12.5927 19.1621 12.6588 19.1537C13.0402 19.1038 13.3782 18.9148 13.6108 18.6216C13.8434 18.3283 13.9426 17.9659 13.8902 17.6015L13.3731 13.9622C13.7353 13.2272 13.8252 12.3939 13.6157 11.5847L14.4555 12.0713C14.6907 12.2075 14.9506 12.2724 15.2074 12.2724C15.7003 12.2724 16.1818 12.0334 16.4552 11.6016C16.657 11.2832 16.717 10.9088 16.6243 10.5473ZM13.2158 1.53712C13.9591 1.53712 14.5638 2.11569 14.5638 2.82683C14.5638 3.23198 14.3703 3.60069 14.0501 3.84056C13.8134 2.97858 13.2852 2.22838 12.5728 1.69288C12.7679 1.59119 12.9874 1.53712 13.2158 1.53712ZM5.38482 2.82683C5.38482 2.11569 5.98956 1.53712 6.73285 1.53712C6.96145 1.53712 7.18107 1.59119 7.37614 1.69288C6.66361 2.22842 6.13548 2.97865 5.8988 3.84067C5.57846 3.6008 5.38482 3.23202 5.38482 2.82683ZM6.40293 4.86408C6.40293 2.97997 8.00509 1.44714 9.97441 1.44714C11.9437 1.44714 13.5459 2.97997 13.5459 4.86408C13.5459 6.74818 11.9437 8.28102 9.97441 8.28102C8.00509 8.28102 6.40293 6.74822 6.40293 4.86408ZM6.5456 10.7732L5.21228 11.5459C4.82824 11.7683 4.32662 11.6506 4.09397 11.2832C3.98117 11.1052 3.9476 10.8958 3.99947 10.6937C4.05134 10.4916 4.18237 10.321 4.36857 10.2131L7.10854 8.6252L6.5456 10.7732ZM8.27643 17.8922C8.22243 18.2684 7.88282 18.5522 7.48643 18.5522C7.44994 18.5522 7.41267 18.5498 7.37674 18.5452C6.94075 18.4881 6.6346 18.102 6.69437 17.6841L7.10914 14.7553C7.51177 15.2111 8.01677 15.5557 8.58034 15.768L8.27643 17.8922ZM10.016 15.4C9.98825 15.4001 9.96056 15.4001 9.93283 15.4C8.98264 15.3969 8.10233 14.9824 7.51754 14.2627C6.92904 13.5385 6.72514 12.6131 6.95827 11.7238L7.84483 8.3411C8.47012 8.69302 9.19799 8.89518 9.97441 8.89518C10.7509 8.89518 11.4788 8.69298 12.1042 8.34103L12.9907 11.7238C13.2237 12.6131 13.0199 13.5385 12.4314 14.2627C11.8466 14.9824 10.9662 15.3969 10.016 15.4ZM13.0996 18.2503C12.9707 18.4127 12.7833 18.5175 12.5729 18.5451C12.536 18.5498 12.4987 18.5522 12.4622 18.5522C12.0661 18.5522 11.7266 18.2684 11.6727 17.8923L11.3683 15.7681C11.9313 15.556 12.4359 15.2119 12.8384 14.7568L13.2543 17.6847C13.2834 17.8869 13.2284 18.0878 13.0996 18.2503ZM15.9063 11.2833C15.6737 11.6506 15.1721 11.7684 14.7881 11.546L13.3942 10.7381L12.8312 8.59011L15.6318 10.2132C15.8179 10.321 15.949 10.4917 16.0008 10.6938C16.0528 10.8958 16.0191 11.1052 15.9063 11.2833Z" fill="#1F2226" stroke="#1F2226" stroke-width="0.4"/>
</svg>
