<svg width="90" height="22" viewBox="0 0 90 22" fill="none" xmlns="http://www.w3.org/2000/svg">
<g id="Frame 2087324693">
<path id="Vector" d="M23.8002 7.90338H32.6642V9.53458H29.1741V18.73H27.2611V9.53458H23.7856L23.8002 7.90338ZM32.2845 10.8915H33.92V12.4072H33.9492C34.0076 12.1907 34.1099 11.9886 34.2559 11.7865C34.4019 11.5844 34.5772 11.3968 34.7962 11.238C35.0006 11.0647 35.2343 10.9348 35.4971 10.8338C35.7454 10.7327 36.0082 10.675 36.2711 10.675C36.4755 10.675 36.6216 10.6894 36.6946 10.6894C36.7676 10.7039 36.8552 10.7183 36.9282 10.7183V12.3784C36.8114 12.3495 36.68 12.3351 36.5485 12.3206C36.4171 12.3062 36.3003 12.2918 36.1689 12.2918C35.8768 12.2918 35.5994 12.3495 35.3365 12.465C35.0737 12.5805 34.8546 12.7537 34.6502 12.9702C34.4603 13.2012 34.2997 13.4755 34.1829 13.8075C34.0661 14.1395 34.0076 14.5292 34.0076 14.9623V18.6867H32.2553L32.2845 10.8915ZM44.9598 18.73H43.2367V17.6329H43.2074C42.9884 18.0371 42.6671 18.3402 42.2437 18.5856C41.8202 18.831 41.3821 18.9465 40.944 18.9465C39.9072 18.9465 39.1479 18.7011 38.6806 18.1814C38.2133 17.6762 37.9796 16.8967 37.9796 15.8717V10.8915H39.732V15.6985C39.732 16.3914 39.8634 16.8822 40.1408 17.1565C40.4037 17.4452 40.7834 17.5896 41.2653 17.5896C41.6303 17.5896 41.937 17.5318 42.1852 17.4163C42.4335 17.3009 42.6379 17.1565 42.784 16.9688C42.9446 16.7812 43.0468 16.5502 43.1198 16.2904C43.1928 16.0305 43.2221 15.7418 43.2221 15.4387V10.8915H44.9744V18.73H44.9598ZM47.9388 16.2182C47.9972 16.7234 48.187 17.0699 48.5229 17.2864C48.8588 17.4885 49.2676 17.5896 49.7349 17.5896C49.8956 17.5896 50.0854 17.5751 50.2898 17.5463C50.4943 17.5174 50.6987 17.4741 50.8739 17.4019C51.0638 17.3297 51.2098 17.2287 51.3266 17.0843C51.4435 16.94 51.5019 16.7667 51.4873 16.5502C51.4727 16.3337 51.3997 16.146 51.239 16.0017C51.0784 15.8573 50.8886 15.7563 50.6549 15.6552C50.4213 15.5686 50.1438 15.4964 49.8371 15.4387C49.5305 15.3809 49.2238 15.3088 48.9026 15.2366C48.5813 15.1644 48.26 15.0778 47.9534 14.9767C47.6467 14.8757 47.3839 14.7458 47.1356 14.5581C46.902 14.3849 46.6975 14.1684 46.5661 13.8941C46.4201 13.6198 46.3471 13.3022 46.3471 12.898C46.3471 12.465 46.4493 12.1185 46.6683 11.8298C46.8728 11.5411 47.1502 11.3101 47.4715 11.1369C47.7927 10.9637 48.1578 10.8338 48.5521 10.7616C48.9464 10.6894 49.326 10.6605 49.6765 10.6605C50.0854 10.6605 50.4797 10.7039 50.8447 10.7905C51.2098 10.8771 51.5603 11.007 51.8523 11.2091C52.159 11.3968 52.4072 11.6566 52.5971 11.9597C52.8015 12.2629 52.9183 12.6382 52.9768 13.0713H51.1514C51.0638 12.6526 50.8739 12.3784 50.5819 12.234C50.2752 12.0897 49.9394 12.0175 49.5451 12.0175C49.4283 12.0175 49.2676 12.0319 49.107 12.0464C48.9318 12.0752 48.7857 12.1041 48.6251 12.1618C48.4791 12.2196 48.3477 12.3062 48.2454 12.4072C48.1432 12.5083 48.0848 12.6526 48.0848 12.8259C48.0848 13.0424 48.1578 13.2012 48.3038 13.3311C48.4499 13.461 48.6397 13.5621 48.888 13.6631C49.1216 13.7497 49.3991 13.8219 49.7057 13.8797C50.0124 13.9374 50.3336 14.0096 50.6549 14.0817C50.9762 14.1539 51.2828 14.2405 51.5895 14.3416C51.8961 14.4426 52.1736 14.5726 52.4072 14.7602C52.6409 14.9334 52.8453 15.15 52.9914 15.4098C53.1374 15.6696 53.2104 16.0017 53.2104 16.377C53.2104 16.8389 53.1082 17.2287 52.8891 17.5607C52.6701 17.8783 52.3926 18.1525 52.0568 18.3546C51.7209 18.5567 51.3266 18.7011 50.9178 18.8021C50.4943 18.8888 50.0854 18.9465 49.6765 18.9465C49.18 18.9465 48.7127 18.8888 48.2892 18.7733C47.8658 18.6578 47.4861 18.4846 47.1794 18.268C46.8728 18.0371 46.6245 17.7628 46.4493 17.4163C46.274 17.0843 46.1718 16.6801 46.1572 16.2038H47.9242V16.2182H47.9388ZM53.7069 10.8915H55.0358V8.5241H56.7881V10.8771H58.3652V12.1618H56.7881V16.3481C56.7881 16.5358 56.8027 16.6801 56.8173 16.8245C56.8319 16.9544 56.8757 17.0699 56.9195 17.1565C56.9779 17.2431 57.0656 17.3153 57.1678 17.3586C57.2846 17.4019 57.4306 17.4308 57.6351 17.4308C57.7519 17.4308 57.8833 17.4308 58.0001 17.4163C58.117 17.4019 58.2484 17.3875 58.3652 17.3586V18.7011C58.1754 18.73 57.9855 18.7444 57.7957 18.7588C57.6059 18.7877 57.4306 18.7877 57.2262 18.7877C56.7589 18.7877 56.3938 18.7444 56.1164 18.6578C55.8389 18.5712 55.6199 18.4413 55.4592 18.2825C55.2986 18.1092 55.1964 17.9071 55.138 17.6617C55.0796 17.4163 55.0504 17.1132 55.0358 16.7956V12.1763H53.7069V10.8626V10.8915ZM59.5919 10.8915H61.242V11.9597H61.2712C61.5194 11.4978 61.8553 11.1802 62.2934 10.9781C62.7315 10.776 63.1988 10.675 63.7245 10.675C64.3524 10.675 64.8927 10.776 65.36 11.007C65.8273 11.2235 66.207 11.5122 66.5136 11.902C66.8203 12.2773 67.0539 12.7248 67.1999 13.2301C67.346 13.7353 67.4336 14.2838 67.4336 14.8468C67.4336 15.3809 67.3606 15.8862 67.2292 16.377C67.0831 16.8678 66.8787 17.3153 66.6012 17.6906C66.3238 18.0659 65.9733 18.3691 65.5352 18.6C65.0971 18.831 64.6006 18.9465 64.0165 18.9465C63.7683 18.9465 63.5054 18.9176 63.2572 18.8743C63.0089 18.831 62.7607 18.7588 62.527 18.6578C62.2934 18.5567 62.0743 18.4268 61.8845 18.268C61.6801 18.1092 61.5194 17.9216 61.388 17.7195H61.3588V21.6315H59.6065V10.8915H59.5919ZM65.7105 14.818C65.7105 14.4715 65.6666 14.1251 65.5644 13.793C65.4768 13.461 65.3308 13.1723 65.1409 12.9125C64.9511 12.6526 64.7175 12.4505 64.4546 12.2918C64.1772 12.133 63.8559 12.0608 63.5054 12.0608C62.7753 12.0608 62.2204 12.3062 61.8407 12.8114C61.4756 13.3167 61.2858 13.9951 61.2858 14.8324C61.2858 15.2366 61.3296 15.5975 61.4318 15.9295C61.534 16.2615 61.6655 16.5502 61.8699 16.7956C62.0597 17.041 62.2934 17.2287 62.5708 17.373C62.8483 17.5174 63.155 17.5896 63.52 17.5896C63.9289 17.5896 64.2502 17.5029 64.5276 17.3442C64.8051 17.1854 65.0241 16.9688 65.214 16.7234C65.3892 16.4636 65.5206 16.1749 65.5936 15.8429C65.6666 15.4964 65.7105 15.1644 65.7105 14.818ZM68.7917 7.90338H70.544V9.53458H68.7917V7.90338ZM68.7917 10.8915H70.544V18.73H68.7917V10.8915ZM72.1065 7.90338H73.8588V18.73H72.1065V7.90338ZM79.2035 18.9465C78.5756 18.9465 78.0061 18.8454 77.5096 18.6289C77.0131 18.4124 76.6042 18.1381 76.2537 17.7772C75.9179 17.4163 75.655 16.9688 75.4798 16.4636C75.3045 15.9584 75.2023 15.3954 75.2023 14.8035C75.2023 14.2117 75.2899 13.6631 75.4798 13.1579C75.655 12.6526 75.9179 12.2196 76.2537 11.8443C76.5896 11.4834 77.0131 11.1947 77.5096 10.9926C78.0061 10.7905 78.5756 10.675 79.2035 10.675C79.8314 10.675 80.4009 10.776 80.8974 10.9926C81.3939 11.1947 81.8028 11.4834 82.1533 11.8443C82.4891 12.2051 82.752 12.6526 82.9272 13.1579C83.1025 13.6631 83.2047 14.2117 83.2047 14.8035C83.2047 15.4098 83.1171 15.9584 82.9272 16.4636C82.7374 16.9688 82.4891 17.4019 82.1533 17.7772C81.8174 18.1381 81.3939 18.4268 80.8974 18.6289C80.4009 18.831 79.846 18.9465 79.2035 18.9465ZM79.2035 17.5751C79.5832 17.5751 79.9336 17.4885 80.2111 17.3297C80.5032 17.1709 80.7222 16.9544 80.912 16.6946C81.1019 16.4347 81.2333 16.1316 81.3209 15.814C81.4085 15.482 81.4523 15.15 81.4523 14.8035C81.4523 14.4715 81.4085 14.1395 81.3209 13.8075C81.2333 13.4755 81.1019 13.1868 80.912 12.9269C80.7222 12.6671 80.4885 12.465 80.2111 12.3062C79.919 12.1474 79.5832 12.0608 79.2035 12.0608C78.8238 12.0608 78.4734 12.1474 78.1959 12.3062C77.9038 12.465 77.6848 12.6815 77.495 12.9269C77.3051 13.1868 77.1737 13.4755 77.0861 13.8075C76.9985 14.1395 76.9547 14.4715 76.9547 14.8035C76.9547 15.15 76.9985 15.482 77.0861 15.814C77.1737 16.146 77.3051 16.4347 77.495 16.6946C77.6848 16.9544 77.9184 17.1709 78.1959 17.3297C78.488 17.5029 78.8238 17.5751 79.2035 17.5751ZM83.7304 10.8915H85.0592V8.5241H86.8116V10.8771H88.3887V12.1618H86.8116V16.3481C86.8116 16.5358 86.8262 16.6801 86.8408 16.8245C86.8554 16.9544 86.8992 17.0699 86.943 17.1565C87.0014 17.2431 87.089 17.3153 87.1913 17.3586C87.3081 17.4019 87.4541 17.4308 87.6586 17.4308C87.7754 17.4308 87.9068 17.4308 88.0236 17.4163C88.1404 17.4019 88.2719 17.3875 88.3887 17.3586V18.7011C88.1989 18.73 88.009 18.7444 87.8192 18.7588C87.6293 18.7877 87.4541 18.7877 87.2497 18.7877C86.7824 18.7877 86.4173 18.7444 86.1399 18.6578C85.8624 18.5712 85.6434 18.4413 85.4827 18.2825C85.3221 18.1092 85.2199 17.9071 85.1615 17.6617C85.1031 17.4163 85.0738 17.1132 85.0592 16.7956V12.1763H83.7304V10.8626V10.8915Z" fill="black"/>
<path id="Vector_2" d="M21.757 7.90353H13.74L11.2722 0.368225L8.78968 7.90353L0.772705 7.88909L7.25638 12.5517L4.77389 20.087L11.2576 15.4244L17.7412 20.087L15.2733 12.5517L21.757 7.90353Z" fill="#00B67A"/>
<path id="Vector_3" d="M15.8307 14.2555L15.2758 12.5521L11.2747 15.4248L15.8307 14.2555Z" fill="#005128"/>
</g>
</svg>
