<svg width="179" height="18" viewBox="0 0 179 18" fill="none" xmlns="http://www.w3.org/2000/svg">
<g clip-path="url(#clip0_447_52)">
<path d="M0 0.00476074H18.5625V17.9952H0V0.00476074ZM20.1094 0.00476074H38.6719V17.9952H20.1094V0.00476074ZM40.2188 0.00476074H58.7812V17.9952H40.2188V0.00476074ZM60.3281 0.00476074H78.8906V17.9952H60.3281V0.00476074ZM80.4375 0.00476074H99V17.9952H80.4375V0.00476074Z" fill="#00B67A"/>
<path d="M9.28105 12.1296L12.1041 11.4362L13.2836 14.9593L9.28105 12.1296ZM15.7779 7.57573H10.8086L9.28105 3.04065L7.75351 7.57573H2.78418L6.80605 10.3867L5.27852 14.9218L9.30039 12.1108L11.7754 10.3867L15.7779 7.57573ZM29.3904 12.1296L32.2135 11.4362L33.393 14.9593L29.3904 12.1296ZM35.8873 7.57573H30.918L29.3904 3.04065L27.8629 7.57573H22.8936L26.9154 10.3867L25.3879 14.9218L29.4098 12.1108L31.8848 10.3867L35.8873 7.57573ZM49.4998 12.1296L52.3228 11.4362L53.5023 14.9593L49.4998 12.1296ZM55.9967 7.57573H51.0273L49.4998 3.04065L47.9723 7.57573H43.0029L47.0248 10.3867L45.4973 14.9218L49.5191 12.1108L51.9941 10.3867L55.9967 7.57573ZM69.6092 12.1296L72.4322 11.4362L73.6117 14.9593L69.6092 12.1296ZM76.106 7.57573H71.1367L69.6092 3.04065L68.0816 7.57573H63.1123L67.1342 10.3867L65.6066 14.9218L69.6285 12.1108L72.1035 10.3867L76.106 7.57573ZM89.7185 12.1296L92.5416 11.4362L93.7211 14.9593L89.7185 12.1296ZM96.2154 7.57573H91.2461L89.7185 3.04065L88.191 7.57573H83.2217L87.2435 10.3867L85.716 14.9218L89.7379 12.1108L92.2129 10.3867L96.2154 7.57573Z" fill="white"/>
</g>
<path d="M122.496 6.37878H130.062V7.75964H127.083V15.5438H125.45V7.75964H122.483L122.496 6.37878ZM129.738 8.90831H131.134V10.1914H131.158C131.208 10.0081 131.296 9.83703 131.42 9.66595C131.545 9.49487 131.694 9.33601 131.881 9.20159C132.056 9.05495 132.255 8.94497 132.48 8.85943C132.692 8.7739 132.916 8.72501 133.14 8.72501C133.315 8.72501 133.439 8.73724 133.502 8.73724C133.564 8.74946 133.639 8.76168 133.701 8.76168V10.167C133.601 10.1425 133.489 10.1303 133.377 10.1181C133.265 10.1059 133.165 10.0937 133.053 10.0937C132.804 10.0937 132.567 10.1425 132.343 10.2403C132.118 10.338 131.931 10.4847 131.757 10.668C131.595 10.8635 131.458 11.0957 131.358 11.3767C131.258 11.6578 131.208 11.9877 131.208 12.3543V15.5071H129.713L129.738 8.90831ZM140.556 15.5438H139.086V14.615H139.061C138.874 14.9572 138.6 15.2138 138.238 15.4216C137.877 15.6293 137.503 15.7271 137.129 15.7271C136.244 15.7271 135.596 15.5193 135.197 15.0794C134.798 14.6517 134.599 13.9918 134.599 13.1242V8.90831H136.094V12.9776C136.094 13.5641 136.206 13.9796 136.443 14.2118C136.668 14.4562 136.992 14.5784 137.403 14.5784C137.715 14.5784 137.976 14.5295 138.188 14.4317C138.4 14.334 138.575 14.2118 138.699 14.0529C138.836 13.8941 138.924 13.6985 138.986 13.4786C139.048 13.2586 139.073 13.0142 139.073 12.7576V8.90831H140.569V15.5438H140.556ZM143.099 13.4175C143.149 13.8452 143.311 14.1385 143.598 14.3218C143.884 14.4928 144.233 14.5784 144.632 14.5784C144.769 14.5784 144.931 14.5662 145.106 14.5417C145.28 14.5173 145.455 14.4806 145.604 14.4195C145.766 14.3584 145.891 14.2729 145.991 14.1507C146.091 14.0285 146.14 13.8818 146.128 13.6985C146.115 13.5152 146.053 13.3564 145.916 13.2342C145.779 13.112 145.617 13.0264 145.417 12.9409C145.218 12.8676 144.981 12.8065 144.719 12.7576C144.458 12.7087 144.196 12.6476 143.922 12.5865C143.648 12.5254 143.373 12.4521 143.112 12.3666C142.85 12.281 142.626 12.171 142.414 12.0122C142.214 11.8655 142.04 11.6822 141.928 11.4501C141.803 11.2179 141.741 10.949 141.741 10.6069C141.741 10.2403 141.828 9.94701 142.015 9.70261C142.189 9.45821 142.426 9.26269 142.7 9.11605C142.975 8.96942 143.286 8.85943 143.623 8.79834C143.959 8.73724 144.283 8.71279 144.582 8.71279C144.931 8.71279 145.268 8.74946 145.58 8.82278C145.891 8.8961 146.19 9.00608 146.44 9.17715C146.701 9.33601 146.913 9.55597 147.075 9.81259C147.25 10.0692 147.349 10.3869 147.399 10.7535H145.841C145.766 10.3992 145.604 10.167 145.355 10.0448C145.093 9.92257 144.807 9.86147 144.47 9.86147C144.371 9.86147 144.233 9.87369 144.096 9.88591C143.947 9.91035 143.822 9.93479 143.685 9.98367C143.56 10.0326 143.448 10.1059 143.361 10.1914C143.274 10.2769 143.224 10.3991 143.224 10.5458C143.224 10.7291 143.286 10.8635 143.411 10.9735C143.535 11.0835 143.697 11.169 143.909 11.2545C144.109 11.3279 144.346 11.389 144.607 11.4378C144.869 11.4867 145.143 11.5478 145.417 11.6089C145.692 11.67 145.953 11.7433 146.215 11.8289C146.477 11.9144 146.714 12.0244 146.913 12.1833C147.113 12.3299 147.287 12.5132 147.412 12.7332C147.536 12.9531 147.599 13.2342 147.599 13.5519C147.599 13.9429 147.511 14.2729 147.325 14.5539C147.138 14.8228 146.901 15.055 146.614 15.226C146.327 15.3971 145.991 15.5193 145.642 15.6049C145.28 15.6782 144.931 15.7271 144.582 15.7271C144.159 15.7271 143.76 15.6782 143.398 15.5804C143.037 15.4827 142.713 15.336 142.451 15.1527C142.189 14.9572 141.977 14.725 141.828 14.4317C141.678 14.1507 141.591 13.8085 141.579 13.4053H143.087V13.4175H143.099ZM148.023 8.90831H149.157V6.90424H150.652V8.89609H151.999V9.98367H150.652V13.5275C150.652 13.6863 150.665 13.8085 150.677 13.9307C150.69 14.0407 150.727 14.1385 150.765 14.2118C150.814 14.2851 150.889 14.3462 150.977 14.3829C151.076 14.4195 151.201 14.444 151.375 14.444C151.475 14.444 151.587 14.444 151.687 14.4317C151.787 14.4195 151.899 14.4073 151.999 14.3829V15.5193C151.837 15.5438 151.675 15.556 151.512 15.5682C151.35 15.5926 151.201 15.5926 151.026 15.5926C150.628 15.5926 150.316 15.556 150.079 15.4827C149.842 15.4093 149.655 15.2994 149.518 15.1649C149.381 15.0183 149.294 14.8472 149.244 14.6395C149.194 14.4317 149.169 14.1751 149.157 13.9063V9.99589H148.023V8.88388V8.90831ZM153.046 8.90831H154.454V9.81259H154.479C154.691 9.42155 154.978 9.15271 155.351 8.98163C155.725 8.81056 156.124 8.72501 156.573 8.72501C157.109 8.72501 157.57 8.81056 157.969 9.00608C158.368 9.18938 158.692 9.43377 158.954 9.76371C159.215 10.0814 159.415 10.4603 159.539 10.8879C159.664 11.3156 159.739 11.78 159.739 12.2566C159.739 12.7087 159.677 13.1364 159.564 13.5519C159.44 13.9674 159.265 14.3462 159.028 14.6639C158.792 14.9816 158.492 15.2383 158.118 15.4338C157.745 15.6293 157.321 15.7271 156.822 15.7271C156.61 15.7271 156.386 15.7026 156.174 15.666C155.962 15.6293 155.75 15.5682 155.551 15.4827C155.351 15.3971 155.164 15.2871 155.002 15.1527C154.828 15.0183 154.691 14.8594 154.579 14.6884H154.554V18H153.058V8.90831H153.046ZM158.268 12.2321C158.268 11.9389 158.231 11.6456 158.143 11.3645C158.069 11.0835 157.944 10.8391 157.782 10.6191C157.62 10.3991 157.421 10.2281 157.196 10.0937C156.959 9.95923 156.685 9.89813 156.386 9.89813C155.763 9.89813 155.289 10.1059 154.965 10.5336C154.653 10.9613 154.491 11.5356 154.491 12.2444C154.491 12.5865 154.529 12.892 154.616 13.1731C154.703 13.4541 154.815 13.6985 154.99 13.9063C155.152 14.114 155.351 14.2729 155.588 14.3951C155.825 14.5173 156.087 14.5784 156.398 14.5784C156.747 14.5784 157.022 14.5051 157.258 14.3706C157.495 14.2362 157.682 14.0529 157.844 13.8452C157.994 13.6252 158.106 13.3808 158.168 13.0998C158.231 12.8065 158.268 12.5254 158.268 12.2321ZM160.898 6.37878H162.394V7.75964H160.898V6.37878ZM160.898 8.90831H162.394V15.5438H160.898V8.90831ZM163.727 6.37878H165.223V15.5438H163.727V6.37878ZM169.785 15.7271C169.249 15.7271 168.763 15.6415 168.339 15.4582C167.915 15.2749 167.566 15.0427 167.267 14.7372C166.981 14.4317 166.756 14.0529 166.607 13.6252C166.457 13.1975 166.37 12.7209 166.37 12.2199C166.37 11.7189 166.445 11.2545 166.607 10.8268C166.756 10.3992 166.981 10.0326 167.267 9.71483C167.554 9.40933 167.915 9.16493 168.339 8.99386C168.763 8.82278 169.249 8.72501 169.785 8.72501C170.321 8.72501 170.807 8.81056 171.231 8.99386C171.655 9.16493 172.004 9.40933 172.303 9.71483C172.589 10.0203 172.814 10.3992 172.963 10.8268C173.113 11.2545 173.2 11.7189 173.2 12.2199C173.2 12.7332 173.125 13.1975 172.963 13.6252C172.801 14.0529 172.589 14.4195 172.303 14.7372C172.016 15.0427 171.655 15.2871 171.231 15.4582C170.807 15.6293 170.333 15.7271 169.785 15.7271ZM169.785 14.5662C170.109 14.5662 170.408 14.4928 170.645 14.3584C170.894 14.224 171.081 14.0407 171.243 13.8207C171.405 13.6008 171.517 13.3442 171.592 13.0753C171.667 12.7943 171.704 12.5132 171.704 12.2199C171.704 11.9389 171.667 11.6578 171.592 11.3767C171.517 11.0957 171.405 10.8513 171.243 10.6313C171.081 10.4114 170.882 10.2403 170.645 10.1059C170.396 9.97145 170.109 9.89813 169.785 9.89813C169.461 9.89813 169.162 9.97145 168.925 10.1059C168.676 10.2403 168.489 10.4236 168.327 10.6313C168.165 10.8513 168.052 11.0957 167.978 11.3767C167.903 11.6578 167.865 11.9389 167.865 12.2199C167.865 12.5132 167.903 12.7943 167.978 13.0753C168.052 13.3564 168.165 13.6008 168.327 13.8207C168.489 14.0407 168.688 14.224 168.925 14.3584C169.174 14.5051 169.461 14.5662 169.785 14.5662ZM173.649 8.90831H174.783V6.90424H176.279V8.89609H177.625V9.98367H176.279V13.5275C176.279 13.6863 176.291 13.8085 176.304 13.9307C176.316 14.0407 176.354 14.1385 176.391 14.2118C176.441 14.2851 176.516 14.3462 176.603 14.3829C176.703 14.4195 176.827 14.444 177.002 14.444C177.101 14.444 177.214 14.444 177.313 14.4317C177.413 14.4195 177.525 14.4073 177.625 14.3829V15.5193C177.463 15.5438 177.301 15.556 177.139 15.5682C176.977 15.5926 176.827 15.5926 176.653 15.5926C176.254 15.5926 175.942 15.556 175.705 15.4827C175.469 15.4093 175.282 15.2994 175.145 15.1649C175.007 15.0183 174.92 14.8472 174.87 14.6395C174.821 14.4317 174.796 14.1751 174.783 13.9063V9.99589H173.649V8.88388V8.90831Z" fill="black"/>
<path d="M120.752 6.37882H113.909L111.803 0L109.684 6.37882L102.841 6.3666L108.375 10.3136L106.256 16.6925L111.79 12.7454L117.324 16.6925L115.218 10.3136L120.752 6.37882Z" fill="#00B67A"/>
<path d="M115.692 11.7557L115.218 10.3137L111.803 12.7455L115.692 11.7557Z" fill="#005128"/>
<defs>
<clipPath id="clip0_447_52">
<rect width="99" height="18" fill="white"/>
</clipPath>
</defs>
</svg>
