<svg width="24" height="26" viewBox="0 0 24 26" fill="none" xmlns="http://www.w3.org/2000/svg">
<path d="M16.9743 9.21758C16.0714 8.33066 15.3581 7.63015 15.3581 6.61252C15.3581 4.50771 15.7727 3.35867 16.4889 2.08521C16.6174 1.85686 16.6151 1.58553 16.4829 1.35948C16.3512 1.13442 16.117 1 15.8562 1H8.14375C7.88304 1 7.64877 1.13442 7.51707 1.35953C7.38486 1.58558 7.38261 1.85686 7.51106 2.08526C8.22726 3.35867 8.64188 4.50771 8.64188 6.61252C8.64188 7.63015 7.92864 8.33066 7.02566 9.21758C5.73694 10.4833 4.13307 12.0586 4.13307 15.2544C4.13307 16.4264 4.56423 17.3285 5.4 19C6 20.2 6.8973 21.1144 7.51468 22.0168V23.8963C7.51468 24.5049 8.0098 25 8.61839 25H15.3816C15.9902 25 16.4853 24.5049 16.4853 23.8963V22.0172C17.1027 21.1151 18.0666 20.0669 18.6 19C19.2 17.8 19.8669 16.4271 19.8669 15.2544C19.8669 12.0586 18.2631 10.4833 16.9743 9.21758ZM9.26362 6.28611H14.7363C14.6818 6.74281 14.6536 7.2455 14.6536 7.81252C14.6536 7.82041 14.654 7.82812 14.654 7.83601H9.34591C9.34596 7.82812 9.34638 7.82041 9.34638 7.81252C9.34638 7.2455 9.31815 6.74281 9.26362 6.28611ZM8.12515 1.73991C8.12252 1.73522 8.1181 1.72737 8.1252 1.71521C8.13149 1.7045 8.13825 1.7045 8.14375 1.7045H15.8562C15.8617 1.7045 15.8685 1.7045 15.8748 1.71521C15.8819 1.72737 15.8775 1.73522 15.8748 1.73991C15.4008 2.58297 15.0493 4.57487 14.848 5.5816H13.9092C13.9684 5.08183 14.0521 4.61498 14.1683 4.13869C14.2143 3.9497 14.0985 3.75906 13.9095 3.71299C13.7205 3.66686 13.5299 3.78278 13.4838 3.97173C13.3543 4.50283 13.2629 5.02186 13.2 5.5816H12.3522V4.05519C12.3522 3.86065 12.1945 3.70294 12 3.70294C11.8055 3.70294 11.6477 3.86065 11.6477 4.05519V5.5816H10.8C10.737 5.0212 10.6454 4.50151 10.5157 3.96975C10.4696 3.78076 10.2789 3.6648 10.09 3.71106C9.90101 3.75718 9.78519 3.94777 9.83131 4.13677C9.94769 4.61371 10.0315 5.08122 10.0908 5.5816H9.15198C8.95073 4.57487 8.59923 2.58297 8.12515 1.73991ZM15.3816 24.2955H8.61839C8.39826 24.2955 8.21918 24.1164 8.21918 23.8963V22.2971H15.7808V23.8963C15.7808 24.1164 15.6017 24.2955 15.3816 24.2955ZM15.9222 21.5926H8.07814C6.83122 19.7666 4.83757 17.6692 4.83757 15.2544C4.83757 12.3542 6.26231 10.9548 7.51933 9.72017C8.27389 8.97908 8.72972 8.54051 9.24906 8.54051H14.7509C15.4943 8.54051 15.7262 8.97908 16.4807 9.72017C17.7377 10.9548 19.1624 12.3542 19.1624 15.2544C19.1624 17.6703 17.1692 19.767 15.9222 21.5926Z" fill="#1F2226" stroke="#1F2226" stroke-width="0.6"/>
</svg>
