<svg width="20" height="20" viewBox="0 0 20 20" fill="none" xmlns="http://www.w3.org/2000/svg">
<g clip-path="url(#clip0_2628_90145)">
<path d="M14.2748 11.8625C14.0373 11.75 12.8998 11.1875 12.6873 11.1C12.4748 11.0125 12.3248 10.9875 12.1623 11.225C11.9998 11.4625 11.5623 11.975 11.4248 12.1375C11.2873 12.3 11.1623 12.3125 10.9248 12.1375C10.2426 11.8638 9.61263 11.4748 9.06229 10.9875C8.56411 10.5185 8.14235 9.97443 7.81229 9.37505C7.67479 9.15005 7.81229 9.02505 7.91229 8.90005C8.01229 8.77505 8.13729 8.63755 8.26229 8.50005C8.3537 8.38113 8.42933 8.25088 8.48729 8.11255C8.5183 8.04821 8.53441 7.97771 8.53441 7.9063C8.53441 7.83488 8.5183 7.76438 8.48729 7.70005C8.48729 7.58755 7.96229 6.45005 7.76229 5.98755C7.56229 5.52505 7.38729 5.58755 7.24979 5.58755H6.74979C6.51161 5.59683 6.28683 5.70023 6.12479 5.87505C5.86324 6.12464 5.65607 6.42556 5.51625 6.75896C5.37644 7.09237 5.307 7.45105 5.31229 7.81255C5.37623 8.70002 5.70255 9.54846 6.24979 10.25C7.25401 11.7418 8.62788 12.9477 10.2373 13.75C10.7873 13.9875 11.2123 14.125 11.5498 14.2375C12.0237 14.3808 12.5247 14.4108 13.0123 14.325C13.3362 14.2593 13.6431 14.1278 13.914 13.9386C14.1849 13.7494 14.4141 13.5065 14.5873 13.225C14.7314 12.8775 14.7789 12.4974 14.7248 12.125C14.6623 12.0375 14.5123 11.975 14.2748 11.8625Z" fill="#009959"/>
<path d="M16.6123 3.34995C15.7478 2.47731 14.7174 1.78661 13.5817 1.31859C12.446 0.850581 11.2281 0.61473 9.99981 0.624952C8.37267 0.633467 6.77625 1.06874 5.36998 1.8873C3.96372 2.70587 2.79682 3.87906 1.98585 5.28972C1.17488 6.70038 0.748217 8.29913 0.748472 9.92628C0.748727 11.5534 1.17589 13.152 1.9873 14.5625L0.737305 19.375L5.66231 18.125C7.02385 18.8658 8.54974 19.2527 10.0998 19.25H9.99981C11.8472 19.262 13.6563 18.7235 15.1965 17.7033C16.7366 16.683 17.938 15.2271 18.6474 13.5213C19.3568 11.8155 19.5421 9.93708 19.1797 8.12555C18.8172 6.31402 17.9234 4.65148 16.6123 3.34995ZM9.99981 17.65C8.613 17.6511 7.25197 17.2752 6.0623 16.5625L5.78731 16.4L2.8623 17.1625L3.63731 14.3125L3.46231 14.025C2.464 12.4172 2.09057 10.499 2.41287 8.63422C2.73516 6.76943 3.73076 5.08781 5.21076 3.90843C6.69076 2.72906 8.5522 2.13398 10.4419 2.2361C12.3316 2.33822 14.118 3.13044 15.4623 4.46245C16.183 5.17732 16.7542 6.02846 17.1426 6.96629C17.531 7.90412 17.729 8.90987 17.7248 9.92495C17.7215 11.9727 16.9066 13.9357 15.4586 15.3837C14.0106 16.8317 12.0476 17.6466 9.99981 17.65Z" fill="#009959"/>
</g>
<defs>
<clipPath id="clip0_2628_90145">
<rect width="20" height="20" fill="white"/>
</clipPath>
</defs>
</svg>
