<svg width="24" height="24" viewBox="0 0 24 24" fill="none" xmlns="http://www.w3.org/2000/svg">
    <g clip-path="url(#clip0_13869_84504)">
        <path
            d="M17.1298 14.2346C16.8448 14.0996 15.4798 13.4246 15.2248 13.3196C14.9698 13.2146 14.7898 13.1846 14.5948 13.4696C14.3998 13.7546 13.8748 14.3696 13.7098 14.5646C13.5448 14.7596 13.3948 14.7746 13.1098 14.5646C12.2913 14.2361 11.5353 13.7693 10.8748 13.1846C10.277 12.6217 9.77091 11.9688 9.37485 11.2496C9.20985 10.9796 9.37485 10.8296 9.49485 10.6796C9.61485 10.5296 9.76485 10.3646 9.91485 10.1996C10.0245 10.0569 10.1153 9.90057 10.1848 9.73457C10.2221 9.65737 10.2414 9.57277 10.2414 9.48707C10.2414 9.40137 10.2221 9.31677 10.1848 9.23957C10.1848 9.10457 9.55485 7.73957 9.31485 7.18457C9.07485 6.62957 8.86485 6.70457 8.69985 6.70457H8.09985C7.81403 6.71571 7.5443 6.83979 7.34985 7.04957C7.03599 7.34907 6.78738 7.71019 6.6196 8.11027C6.45182 8.51035 6.3685 8.94078 6.37485 9.37457C6.45157 10.4395 6.84316 11.4577 7.49985 12.2996C8.70491 14.0897 10.3536 15.5368 12.2848 16.4996C12.9448 16.7846 13.4548 16.9496 13.8598 17.0846C14.4286 17.2565 15.0297 17.2924 15.6148 17.1896C16.0035 17.1107 16.3718 16.9529 16.6969 16.7258C17.022 16.4987 17.297 16.2073 17.5048 15.8696C17.6778 15.4525 17.7348 14.9964 17.6698 14.5496C17.5948 14.4446 17.4148 14.3696 17.1298 14.2346Z"
            fill="white" />
        <path
            d="M19.9348 4.02038C18.8974 2.97321 17.6608 2.14437 16.298 1.58275C14.9352 1.02114 13.4737 0.738116 11.9998 0.750382C10.0472 0.7606 8.1315 1.28293 6.44398 2.2652C4.75646 3.24748 3.35619 4.65532 2.38302 6.34811C1.40986 8.0409 0.89786 9.95939 0.898166 11.912C0.898472 13.8646 1.41107 15.7829 2.38477 17.4754L0.884766 23.2504L6.79477 21.7504C8.42862 22.6394 10.2597 23.1037 12.1198 23.1004H11.9998C14.2166 23.1148 16.3876 22.4687 18.2358 21.2444C20.084 20.02 21.5256 18.273 22.3769 16.226C23.2282 14.1791 23.4505 11.9249 23.0156 9.7511C22.5806 7.57726 21.5081 5.58222 19.9348 4.02038ZM11.9998 21.1804C10.3356 21.1817 8.70236 20.7306 7.27477 19.8754L6.94477 19.6804L3.43477 20.5954L4.36477 17.1754L4.15477 16.8304C2.9568 14.9011 2.50868 12.5993 2.89544 10.3615C3.28219 8.12375 4.47691 6.10581 6.25291 4.69056C8.02892 3.27531 10.2626 2.56121 12.5303 2.68376C14.7979 2.80631 16.9416 3.75697 18.5548 5.35538C19.4196 6.21322 20.105 7.2346 20.5711 8.35999C21.0373 9.48538 21.2747 10.6923 21.2698 11.9104C21.2658 14.3677 20.2879 16.7233 18.5503 18.4609C16.8127 20.1985 14.4571 21.1764 11.9998 21.1804Z"
            fill="white" />
    </g>
    <defs>
        <clipPath id="clip0_13869_84504">
            <rect width="24" height="24" fill="white" />
        </clipPath>
    </defs>
</svg>